solid Mesh
  facet normal -0.999762 0.0218154 0
    outer loop
      vertex -0.004002 2.45052e-19 -0.015
      vertex -0.00399819 0.000174565 0.065
      vertex -0.00399819 0.000174565 -0.015
    endloop
  endfacet
  facet normal -0.997859 0.0654036 0
    outer loop
      vertex -0.00399819 0.000174565 0.065
      vertex -0.00398677 0.000348797 0.065
      vertex -0.00399819 0.000174565 -0.015
    endloop
  endfacet
  facet normal -0.997859 0.0654036 0
    outer loop
      vertex -0.00399819 0.000174565 -0.015
      vertex -0.00398677 0.000348797 0.065
      vertex -0.00398677 0.000348797 -0.015
    endloop
  endfacet
  facet normal -0.994056 0.108866 0
    outer loop
      vertex -0.00398677 0.000348797 0.065
      vertex -0.00396776 0.000522366 0.065
      vertex -0.00398677 0.000348797 -0.015
    endloop
  endfacet
  facet normal -0.994056 0.108866 0
    outer loop
      vertex -0.00398677 0.000348797 -0.015
      vertex -0.00396776 0.000522366 0.065
      vertex -0.00396776 0.000522366 -0.015
    endloop
  endfacet
  facet normal -0.988361 0.152124 0
    outer loop
      vertex -0.00396776 0.000522366 0.065
      vertex -0.0039412 0.00069494 0.065
      vertex -0.00396776 0.000522366 -0.015
    endloop
  endfacet
  facet normal -0.988361 0.152124 0
    outer loop
      vertex -0.00396776 0.000522366 -0.015
      vertex -0.0039412 0.00069494 0.065
      vertex -0.0039412 0.00069494 -0.015
    endloop
  endfacet
  facet normal -0.980785 0.195091 0
    outer loop
      vertex -0.0039412 0.00069494 0.065
      vertex -0.00390714 0.000866191 0.065
      vertex -0.0039412 0.00069494 -0.015
    endloop
  endfacet
  facet normal -0.980785 0.195091 0
    outer loop
      vertex -0.0039412 0.00069494 -0.015
      vertex -0.00390714 0.000866191 0.065
      vertex -0.00390714 0.000866191 -0.015
    endloop
  endfacet
  facet normal -0.971342 0.237685 0
    outer loop
      vertex -0.00390714 0.000866191 0.065
      vertex -0.00386564 0.00103579 0.065
      vertex -0.00390714 0.000866191 -0.015
    endloop
  endfacet
  facet normal -0.971342 0.237685 0
    outer loop
      vertex -0.00390714 0.000866191 -0.015
      vertex -0.00386564 0.00103579 0.065
      vertex -0.00386564 0.00103579 -0.015
    endloop
  endfacet
  facet normal -0.96005 0.279829 0
    outer loop
      vertex -0.00386564 0.00103579 0.065
      vertex -0.00381678 0.00120342 0.065
      vertex -0.00386564 0.00103579 -0.015
    endloop
  endfacet
  facet normal -0.96005 0.279829 0
    outer loop
      vertex -0.00386564 0.00103579 -0.015
      vertex -0.00381678 0.00120342 0.065
      vertex -0.00381678 0.00120342 -0.015
    endloop
  endfacet
  facet normal -0.94693 0.32144 0
    outer loop
      vertex -0.00381678 0.00120342 0.065
      vertex -0.00376065 0.00136876 0.065
      vertex -0.00381678 0.00120342 -0.015
    endloop
  endfacet
  facet normal -0.94693 0.32144 0
    outer loop
      vertex -0.00381678 0.00120342 -0.015
      vertex -0.00376065 0.00136876 0.065
      vertex -0.00376065 0.00136876 -0.015
    endloop
  endfacet
  facet normal -0.932008 0.362437 0
    outer loop
      vertex -0.00376065 0.00136876 0.065
      vertex -0.00369737 0.0015315 0.065
      vertex -0.00376065 0.00136876 -0.015
    endloop
  endfacet
  facet normal -0.932008 0.362437 0
    outer loop
      vertex -0.00376065 0.00136876 -0.015
      vertex -0.00369737 0.0015315 0.065
      vertex -0.00369737 0.0015315 -0.015
    endloop
  endfacet
  facet normal -0.915311 0.402748 0
    outer loop
      vertex -0.00369737 0.0015315 0.065
      vertex -0.00362704 0.00169132 0.065
      vertex -0.00369737 0.0015315 -0.015
    endloop
  endfacet
  facet normal -0.915311 0.402748 0
    outer loop
      vertex -0.00369737 0.0015315 -0.015
      vertex -0.00362704 0.00169132 0.065
      vertex -0.00362704 0.00169132 -0.015
    endloop
  endfacet
  facet normal -0.896873 0.442289 0
    outer loop
      vertex -0.00362704 0.00169132 0.065
      vertex -0.00354982 0.00184792 0.065
      vertex -0.00362704 0.00169132 -0.015
    endloop
  endfacet
  facet normal -0.896873 0.442289 0
    outer loop
      vertex -0.00362704 0.00169132 -0.015
      vertex -0.00354982 0.00184792 0.065
      vertex -0.00354982 0.00184792 -0.015
    endloop
  endfacet
  facet normal -0.876727 0.480988 0
    outer loop
      vertex -0.00354982 0.00184792 0.065
      vertex -0.00346583 0.002001 0.065
      vertex -0.00354982 0.00184792 -0.015
    endloop
  endfacet
  facet normal -0.876727 0.480988 0
    outer loop
      vertex -0.00354982 0.00184792 -0.015
      vertex -0.00346583 0.002001 0.065
      vertex -0.00346583 0.002001 -0.015
    endloop
  endfacet
  facet normal -0.854912 0.518774 0
    outer loop
      vertex -0.00346583 0.002001 0.065
      vertex -0.00337525 0.00215027 0.065
      vertex -0.00346583 0.002001 -0.015
    endloop
  endfacet
  facet normal -0.854912 0.518774 0
    outer loop
      vertex -0.00346583 0.002001 -0.015
      vertex -0.00337525 0.00215027 0.065
      vertex -0.00337525 0.00215027 -0.015
    endloop
  endfacet
  facet normal -0.83147 0.55557 0
    outer loop
      vertex -0.00337525 0.00215027 0.065
      vertex -0.00327825 0.00229545 0.065
      vertex -0.00337525 0.00215027 -0.015
    endloop
  endfacet
  facet normal -0.83147 0.55557 0
    outer loop
      vertex -0.00337525 0.00215027 -0.015
      vertex -0.00327825 0.00229545 0.065
      vertex -0.00327825 0.00229545 -0.015
    endloop
  endfacet
  facet normal -0.806445 0.59131 0
    outer loop
      vertex -0.00327825 0.00229545 0.065
      vertex -0.003175 0.00243626 0.065
      vertex -0.00327825 0.00229545 -0.015
    endloop
  endfacet
  facet normal -0.806445 0.59131 0
    outer loop
      vertex -0.00327825 0.00229545 -0.015
      vertex -0.003175 0.00243626 0.065
      vertex -0.003175 0.00243626 -0.015
    endloop
  endfacet
  facet normal -0.779885 0.625923 0
    outer loop
      vertex -0.003175 0.00243626 0.065
      vertex -0.00306571 0.00257244 0.065
      vertex -0.003175 0.00243626 -0.015
    endloop
  endfacet
  facet normal -0.779885 0.625923 0
    outer loop
      vertex -0.003175 0.00243626 -0.015
      vertex -0.00306571 0.00257244 0.065
      vertex -0.00306571 0.00257244 -0.015
    endloop
  endfacet
  facet normal -0.751839 0.659346 0
    outer loop
      vertex -0.00306571 0.00257244 0.065
      vertex -0.00295058 0.00270371 0.065
      vertex -0.00306571 0.00257244 -0.015
    endloop
  endfacet
  facet normal -0.751839 0.659346 0
    outer loop
      vertex -0.00306571 0.00257244 -0.015
      vertex -0.00295058 0.00270371 0.065
      vertex -0.00295058 0.00270371 -0.015
    endloop
  endfacet
  facet normal -0.722364 0.691513 0
    outer loop
      vertex -0.00295058 0.00270371 0.065
      vertex -0.00282984 0.00282984 0.065
      vertex -0.00295058 0.00270371 -0.015
    endloop
  endfacet
  facet normal -0.722364 0.691513 0
    outer loop
      vertex -0.00295058 0.00270371 -0.015
      vertex -0.00282984 0.00282984 0.065
      vertex -0.00282984 0.00282984 -0.015
    endloop
  endfacet
  facet normal -0.691513 0.722364 0
    outer loop
      vertex -0.00282984 0.00282984 0.065
      vertex -0.00270371 0.00295058 0.065
      vertex -0.00282984 0.00282984 -0.015
    endloop
  endfacet
  facet normal -0.691513 0.722364 0
    outer loop
      vertex -0.00282984 0.00282984 -0.015
      vertex -0.00270371 0.00295058 0.065
      vertex -0.00270371 0.00295058 -0.015
    endloop
  endfacet
  facet normal -0.659346 0.751839 0
    outer loop
      vertex -0.00270371 0.00295058 0.065
      vertex -0.00257244 0.00306571 0.065
      vertex -0.00270371 0.00295058 -0.015
    endloop
  endfacet
  facet normal -0.659346 0.751839 0
    outer loop
      vertex -0.00270371 0.00295058 -0.015
      vertex -0.00257244 0.00306571 0.065
      vertex -0.00257244 0.00306571 -0.015
    endloop
  endfacet
  facet normal -0.625923 0.779885 0
    outer loop
      vertex -0.00257244 0.00306571 0.065
      vertex -0.00243626 0.003175 0.065
      vertex -0.00257244 0.00306571 -0.015
    endloop
  endfacet
  facet normal -0.625923 0.779885 0
    outer loop
      vertex -0.00257244 0.00306571 -0.015
      vertex -0.00243626 0.003175 0.065
      vertex -0.00243626 0.003175 -0.015
    endloop
  endfacet
  facet normal -0.59131 0.806445 0
    outer loop
      vertex -0.00243626 0.003175 0.065
      vertex -0.00229545 0.00327825 0.065
      vertex -0.00243626 0.003175 -0.015
    endloop
  endfacet
  facet normal -0.59131 0.806445 0
    outer loop
      vertex -0.00243626 0.003175 -0.015
      vertex -0.00229545 0.00327825 0.065
      vertex -0.00229545 0.00327825 -0.015
    endloop
  endfacet
  facet normal -0.55557 0.83147 0
    outer loop
      vertex -0.00229545 0.00327825 0.065
      vertex -0.00215027 0.00337525 0.065
      vertex -0.00229545 0.00327825 -0.015
    endloop
  endfacet
  facet normal -0.55557 0.83147 0
    outer loop
      vertex -0.00229545 0.00327825 -0.015
      vertex -0.00215027 0.00337525 0.065
      vertex -0.00215027 0.00337525 -0.015
    endloop
  endfacet
  facet normal -0.518774 0.854912 0
    outer loop
      vertex -0.00215027 0.00337525 0.065
      vertex -0.002001 0.00346583 0.065
      vertex -0.00215027 0.00337525 -0.015
    endloop
  endfacet
  facet normal -0.518774 0.854912 0
    outer loop
      vertex -0.00215027 0.00337525 -0.015
      vertex -0.002001 0.00346583 0.065
      vertex -0.002001 0.00346583 -0.015
    endloop
  endfacet
  facet normal -0.480988 0.876727 0
    outer loop
      vertex -0.002001 0.00346583 0.065
      vertex -0.00184792 0.00354982 0.065
      vertex -0.002001 0.00346583 -0.015
    endloop
  endfacet
  facet normal -0.480988 0.876727 0
    outer loop
      vertex -0.002001 0.00346583 -0.015
      vertex -0.00184792 0.00354982 0.065
      vertex -0.00184792 0.00354982 -0.015
    endloop
  endfacet
  facet normal -0.442289 0.896873 0
    outer loop
      vertex -0.00184792 0.00354982 0.065
      vertex -0.00169132 0.00362704 0.065
      vertex -0.00184792 0.00354982 -0.015
    endloop
  endfacet
  facet normal -0.442289 0.896873 0
    outer loop
      vertex -0.00184792 0.00354982 -0.015
      vertex -0.00169132 0.00362704 0.065
      vertex -0.00169132 0.00362704 -0.015
    endloop
  endfacet
  facet normal -0.402748 0.915311 0
    outer loop
      vertex -0.00169132 0.00362704 0.065
      vertex -0.0015315 0.00369737 0.065
      vertex -0.00169132 0.00362704 -0.015
    endloop
  endfacet
  facet normal -0.402748 0.915311 0
    outer loop
      vertex -0.00169132 0.00362704 -0.015
      vertex -0.0015315 0.00369737 0.065
      vertex -0.0015315 0.00369737 -0.015
    endloop
  endfacet
  facet normal -0.362437 0.932008 0
    outer loop
      vertex -0.0015315 0.00369737 0.065
      vertex -0.00136876 0.00376065 0.065
      vertex -0.0015315 0.00369737 -0.015
    endloop
  endfacet
  facet normal -0.362437 0.932008 0
    outer loop
      vertex -0.0015315 0.00369737 -0.015
      vertex -0.00136876 0.00376065 0.065
      vertex -0.00136876 0.00376065 -0.015
    endloop
  endfacet
  facet normal -0.32144 0.94693 0
    outer loop
      vertex -0.00136876 0.00376065 0.065
      vertex -0.00120342 0.00381678 0.065
      vertex -0.00136876 0.00376065 -0.015
    endloop
  endfacet
  facet normal -0.32144 0.94693 0
    outer loop
      vertex -0.00136876 0.00376065 -0.015
      vertex -0.00120342 0.00381678 0.065
      vertex -0.00120342 0.00381678 -0.015
    endloop
  endfacet
  facet normal -0.279829 0.96005 0
    outer loop
      vertex -0.00120342 0.00381678 0.065
      vertex -0.00103579 0.00386564 0.065
      vertex -0.00120342 0.00381678 -0.015
    endloop
  endfacet
  facet normal -0.279829 0.96005 0
    outer loop
      vertex -0.00120342 0.00381678 -0.015
      vertex -0.00103579 0.00386564 0.065
      vertex -0.00103579 0.00386564 -0.015
    endloop
  endfacet
  facet normal -0.237685 0.971342 0
    outer loop
      vertex -0.00103579 0.00386564 0.065
      vertex -0.000866191 0.00390714 0.065
      vertex -0.00103579 0.00386564 -0.015
    endloop
  endfacet
  facet normal -0.237685 0.971342 0
    outer loop
      vertex -0.00103579 0.00386564 -0.015
      vertex -0.000866191 0.00390714 0.065
      vertex -0.000866191 0.00390714 -0.015
    endloop
  endfacet
  facet normal -0.195091 0.980785 0
    outer loop
      vertex -0.000866191 0.00390714 0.065
      vertex -0.00069494 0.0039412 0.065
      vertex -0.000866191 0.00390714 -0.015
    endloop
  endfacet
  facet normal -0.195091 0.980785 0
    outer loop
      vertex -0.000866191 0.00390714 -0.015
      vertex -0.00069494 0.0039412 0.065
      vertex -0.00069494 0.0039412 -0.015
    endloop
  endfacet
  facet normal -0.152124 0.988361 0
    outer loop
      vertex -0.00069494 0.0039412 0.065
      vertex -0.000522366 0.00396776 0.065
      vertex -0.00069494 0.0039412 -0.015
    endloop
  endfacet
  facet normal -0.152124 0.988361 0
    outer loop
      vertex -0.00069494 0.0039412 -0.015
      vertex -0.000522366 0.00396776 0.065
      vertex -0.000522366 0.00396776 -0.015
    endloop
  endfacet
  facet normal -0.108866 0.994056 0
    outer loop
      vertex -0.000522366 0.00396776 0.065
      vertex -0.000348797 0.00398677 0.065
      vertex -0.000522366 0.00396776 -0.015
    endloop
  endfacet
  facet normal -0.108866 0.994056 0
    outer loop
      vertex -0.000522366 0.00396776 -0.015
      vertex -0.000348797 0.00398677 0.065
      vertex -0.000348797 0.00398677 -0.015
    endloop
  endfacet
  facet normal -0.0654036 0.997859 0
    outer loop
      vertex -0.000348797 0.00398677 0.065
      vertex -0.000174565 0.00399819 0.065
      vertex -0.000348797 0.00398677 -0.015
    endloop
  endfacet
  facet normal -0.0654036 0.997859 0
    outer loop
      vertex -0.000348797 0.00398677 -0.015
      vertex -0.000174565 0.00399819 0.065
      vertex -0.000174565 0.00399819 -0.015
    endloop
  endfacet
  facet normal -0.0218154 0.999762 0
    outer loop
      vertex -0.000174565 0.00399819 0.065
      vertex -2.45052e-19 0.004002 0.065
      vertex -0.000174565 0.00399819 -0.015
    endloop
  endfacet
  facet normal -0.0218154 0.999762 0
    outer loop
      vertex -0.000174565 0.00399819 -0.015
      vertex -2.45052e-19 0.004002 0.065
      vertex -2.45052e-19 0.004002 -0.015
    endloop
  endfacet
  facet normal 0.0218154 0.999762 0
    outer loop
      vertex -2.45052e-19 0.004002 0.065
      vertex 0.000174565 0.00399819 0.065
      vertex -2.45052e-19 0.004002 -0.015
    endloop
  endfacet
  facet normal 0.0218154 0.999762 0
    outer loop
      vertex -2.45052e-19 0.004002 -0.015
      vertex 0.000174565 0.00399819 0.065
      vertex 0.000174565 0.00399819 -0.015
    endloop
  endfacet
  facet normal 0.0654036 0.997859 0
    outer loop
      vertex 0.000174565 0.00399819 0.065
      vertex 0.000348797 0.00398677 0.065
      vertex 0.000174565 0.00399819 -0.015
    endloop
  endfacet
  facet normal 0.0654036 0.997859 0
    outer loop
      vertex 0.000174565 0.00399819 -0.015
      vertex 0.000348797 0.00398677 0.065
      vertex 0.000348797 0.00398677 -0.015
    endloop
  endfacet
  facet normal 0.108866 0.994056 0
    outer loop
      vertex 0.000348797 0.00398677 0.065
      vertex 0.000522366 0.00396776 0.065
      vertex 0.000348797 0.00398677 -0.015
    endloop
  endfacet
  facet normal 0.108866 0.994056 0
    outer loop
      vertex 0.000348797 0.00398677 -0.015
      vertex 0.000522366 0.00396776 0.065
      vertex 0.000522366 0.00396776 -0.015
    endloop
  endfacet
  facet normal 0.152124 0.988361 0
    outer loop
      vertex 0.000522366 0.00396776 0.065
      vertex 0.00069494 0.0039412 0.065
      vertex 0.000522366 0.00396776 -0.015
    endloop
  endfacet
  facet normal 0.152124 0.988361 0
    outer loop
      vertex 0.000522366 0.00396776 -0.015
      vertex 0.00069494 0.0039412 0.065
      vertex 0.00069494 0.0039412 -0.015
    endloop
  endfacet
  facet normal 0.195091 0.980785 0
    outer loop
      vertex 0.00069494 0.0039412 0.065
      vertex 0.000866191 0.00390714 0.065
      vertex 0.00069494 0.0039412 -0.015
    endloop
  endfacet
  facet normal 0.195091 0.980785 0
    outer loop
      vertex 0.00069494 0.0039412 -0.015
      vertex 0.000866191 0.00390714 0.065
      vertex 0.000866191 0.00390714 -0.015
    endloop
  endfacet
  facet normal 0.237685 0.971342 0
    outer loop
      vertex 0.000866191 0.00390714 0.065
      vertex 0.00103579 0.00386564 0.065
      vertex 0.000866191 0.00390714 -0.015
    endloop
  endfacet
  facet normal 0.237685 0.971342 0
    outer loop
      vertex 0.000866191 0.00390714 -0.015
      vertex 0.00103579 0.00386564 0.065
      vertex 0.00103579 0.00386564 -0.015
    endloop
  endfacet
  facet normal 0.279829 0.96005 0
    outer loop
      vertex 0.00103579 0.00386564 0.065
      vertex 0.00120342 0.00381678 0.065
      vertex 0.00103579 0.00386564 -0.015
    endloop
  endfacet
  facet normal 0.279829 0.96005 0
    outer loop
      vertex 0.00103579 0.00386564 -0.015
      vertex 0.00120342 0.00381678 0.065
      vertex 0.00120342 0.00381678 -0.015
    endloop
  endfacet
  facet normal 0.32144 0.94693 0
    outer loop
      vertex 0.00120342 0.00381678 0.065
      vertex 0.00136876 0.00376065 0.065
      vertex 0.00120342 0.00381678 -0.015
    endloop
  endfacet
  facet normal 0.32144 0.94693 0
    outer loop
      vertex 0.00120342 0.00381678 -0.015
      vertex 0.00136876 0.00376065 0.065
      vertex 0.00136876 0.00376065 -0.015
    endloop
  endfacet
  facet normal 0.362437 0.932008 0
    outer loop
      vertex 0.00136876 0.00376065 0.065
      vertex 0.0015315 0.00369737 0.065
      vertex 0.00136876 0.00376065 -0.015
    endloop
  endfacet
  facet normal 0.362437 0.932008 0
    outer loop
      vertex 0.00136876 0.00376065 -0.015
      vertex 0.0015315 0.00369737 0.065
      vertex 0.0015315 0.00369737 -0.015
    endloop
  endfacet
  facet normal 0.402748 0.915311 0
    outer loop
      vertex 0.0015315 0.00369737 0.065
      vertex 0.00169132 0.00362704 0.065
      vertex 0.0015315 0.00369737 -0.015
    endloop
  endfacet
  facet normal 0.402748 0.915311 0
    outer loop
      vertex 0.0015315 0.00369737 -0.015
      vertex 0.00169132 0.00362704 0.065
      vertex 0.00169132 0.00362704 -0.015
    endloop
  endfacet
  facet normal 0.442289 0.896873 0
    outer loop
      vertex 0.00169132 0.00362704 0.065
      vertex 0.00184792 0.00354982 0.065
      vertex 0.00169132 0.00362704 -0.015
    endloop
  endfacet
  facet normal 0.442289 0.896873 0
    outer loop
      vertex 0.00169132 0.00362704 -0.015
      vertex 0.00184792 0.00354982 0.065
      vertex 0.00184792 0.00354982 -0.015
    endloop
  endfacet
  facet normal 0.480988 0.876727 0
    outer loop
      vertex 0.00184792 0.00354982 0.065
      vertex 0.002001 0.00346583 0.065
      vertex 0.00184792 0.00354982 -0.015
    endloop
  endfacet
  facet normal 0.480988 0.876727 0
    outer loop
      vertex 0.00184792 0.00354982 -0.015
      vertex 0.002001 0.00346583 0.065
      vertex 0.002001 0.00346583 -0.015
    endloop
  endfacet
  facet normal 0.518774 0.854912 0
    outer loop
      vertex 0.002001 0.00346583 0.065
      vertex 0.00215027 0.00337525 0.065
      vertex 0.002001 0.00346583 -0.015
    endloop
  endfacet
  facet normal 0.518774 0.854912 0
    outer loop
      vertex 0.002001 0.00346583 -0.015
      vertex 0.00215027 0.00337525 0.065
      vertex 0.00215027 0.00337525 -0.015
    endloop
  endfacet
  facet normal 0.55557 0.83147 0
    outer loop
      vertex 0.00215027 0.00337525 0.065
      vertex 0.00229545 0.00327825 0.065
      vertex 0.00215027 0.00337525 -0.015
    endloop
  endfacet
  facet normal 0.55557 0.83147 0
    outer loop
      vertex 0.00215027 0.00337525 -0.015
      vertex 0.00229545 0.00327825 0.065
      vertex 0.00229545 0.00327825 -0.015
    endloop
  endfacet
  facet normal 0.59131 0.806445 0
    outer loop
      vertex 0.00229545 0.00327825 0.065
      vertex 0.00243626 0.003175 0.065
      vertex 0.00229545 0.00327825 -0.015
    endloop
  endfacet
  facet normal 0.59131 0.806445 0
    outer loop
      vertex 0.00229545 0.00327825 -0.015
      vertex 0.00243626 0.003175 0.065
      vertex 0.00243626 0.003175 -0.015
    endloop
  endfacet
  facet normal 0.625923 0.779885 0
    outer loop
      vertex 0.00243626 0.003175 0.065
      vertex 0.00257244 0.00306571 0.065
      vertex 0.00243626 0.003175 -0.015
    endloop
  endfacet
  facet normal 0.625923 0.779885 0
    outer loop
      vertex 0.00243626 0.003175 -0.015
      vertex 0.00257244 0.00306571 0.065
      vertex 0.00257244 0.00306571 -0.015
    endloop
  endfacet
  facet normal 0.659346 0.751839 0
    outer loop
      vertex 0.00257244 0.00306571 0.065
      vertex 0.00270371 0.00295058 0.065
      vertex 0.00257244 0.00306571 -0.015
    endloop
  endfacet
  facet normal 0.659346 0.751839 0
    outer loop
      vertex 0.00257244 0.00306571 -0.015
      vertex 0.00270371 0.00295058 0.065
      vertex 0.00270371 0.00295058 -0.015
    endloop
  endfacet
  facet normal 0.691513 0.722364 0
    outer loop
      vertex 0.00270371 0.00295058 0.065
      vertex 0.00282984 0.00282984 0.065
      vertex 0.00270371 0.00295058 -0.015
    endloop
  endfacet
  facet normal 0.691513 0.722364 0
    outer loop
      vertex 0.00270371 0.00295058 -0.015
      vertex 0.00282984 0.00282984 0.065
      vertex 0.00282984 0.00282984 -0.015
    endloop
  endfacet
  facet normal 0.722364 0.691513 0
    outer loop
      vertex 0.00282984 0.00282984 0.065
      vertex 0.00295058 0.00270371 0.065
      vertex 0.00282984 0.00282984 -0.015
    endloop
  endfacet
  facet normal 0.722364 0.691513 0
    outer loop
      vertex 0.00282984 0.00282984 -0.015
      vertex 0.00295058 0.00270371 0.065
      vertex 0.00295058 0.00270371 -0.015
    endloop
  endfacet
  facet normal 0.751839 0.659346 0
    outer loop
      vertex 0.00295058 0.00270371 0.065
      vertex 0.00306571 0.00257244 0.065
      vertex 0.00295058 0.00270371 -0.015
    endloop
  endfacet
  facet normal 0.751839 0.659346 0
    outer loop
      vertex 0.00295058 0.00270371 -0.015
      vertex 0.00306571 0.00257244 0.065
      vertex 0.00306571 0.00257244 -0.015
    endloop
  endfacet
  facet normal 0.779885 0.625923 0
    outer loop
      vertex 0.00306571 0.00257244 0.065
      vertex 0.003175 0.00243626 0.065
      vertex 0.00306571 0.00257244 -0.015
    endloop
  endfacet
  facet normal 0.779885 0.625923 0
    outer loop
      vertex 0.00306571 0.00257244 -0.015
      vertex 0.003175 0.00243626 0.065
      vertex 0.003175 0.00243626 -0.015
    endloop
  endfacet
  facet normal 0.806445 0.59131 0
    outer loop
      vertex 0.003175 0.00243626 0.065
      vertex 0.00327825 0.00229545 0.065
      vertex 0.003175 0.00243626 -0.015
    endloop
  endfacet
  facet normal 0.806445 0.59131 0
    outer loop
      vertex 0.003175 0.00243626 -0.015
      vertex 0.00327825 0.00229545 0.065
      vertex 0.00327825 0.00229545 -0.015
    endloop
  endfacet
  facet normal 0.83147 0.55557 0
    outer loop
      vertex 0.00327825 0.00229545 0.065
      vertex 0.00337525 0.00215027 0.065
      vertex 0.00327825 0.00229545 -0.015
    endloop
  endfacet
  facet normal 0.83147 0.55557 0
    outer loop
      vertex 0.00327825 0.00229545 -0.015
      vertex 0.00337525 0.00215027 0.065
      vertex 0.00337525 0.00215027 -0.015
    endloop
  endfacet
  facet normal 0.854912 0.518774 0
    outer loop
      vertex 0.00337525 0.00215027 0.065
      vertex 0.00346583 0.002001 0.065
      vertex 0.00337525 0.00215027 -0.015
    endloop
  endfacet
  facet normal 0.854912 0.518774 0
    outer loop
      vertex 0.00337525 0.00215027 -0.015
      vertex 0.00346583 0.002001 0.065
      vertex 0.00346583 0.002001 -0.015
    endloop
  endfacet
  facet normal 0.876727 0.480988 0
    outer loop
      vertex 0.00346583 0.002001 0.065
      vertex 0.00354982 0.00184792 0.065
      vertex 0.00346583 0.002001 -0.015
    endloop
  endfacet
  facet normal 0.876727 0.480988 0
    outer loop
      vertex 0.00346583 0.002001 -0.015
      vertex 0.00354982 0.00184792 0.065
      vertex 0.00354982 0.00184792 -0.015
    endloop
  endfacet
  facet normal 0.896873 0.442289 0
    outer loop
      vertex 0.00354982 0.00184792 0.065
      vertex 0.00362704 0.00169132 0.065
      vertex 0.00354982 0.00184792 -0.015
    endloop
  endfacet
  facet normal 0.896873 0.442289 0
    outer loop
      vertex 0.00354982 0.00184792 -0.015
      vertex 0.00362704 0.00169132 0.065
      vertex 0.00362704 0.00169132 -0.015
    endloop
  endfacet
  facet normal 0.915311 0.402748 0
    outer loop
      vertex 0.00362704 0.00169132 0.065
      vertex 0.00369737 0.0015315 0.065
      vertex 0.00362704 0.00169132 -0.015
    endloop
  endfacet
  facet normal 0.915311 0.402748 0
    outer loop
      vertex 0.00362704 0.00169132 -0.015
      vertex 0.00369737 0.0015315 0.065
      vertex 0.00369737 0.0015315 -0.015
    endloop
  endfacet
  facet normal 0.932008 0.362437 0
    outer loop
      vertex 0.00369737 0.0015315 0.065
      vertex 0.00376065 0.00136876 0.065
      vertex 0.00369737 0.0015315 -0.015
    endloop
  endfacet
  facet normal 0.932008 0.362437 0
    outer loop
      vertex 0.00369737 0.0015315 -0.015
      vertex 0.00376065 0.00136876 0.065
      vertex 0.00376065 0.00136876 -0.015
    endloop
  endfacet
  facet normal 0.94693 0.32144 0
    outer loop
      vertex 0.00376065 0.00136876 0.065
      vertex 0.00381678 0.00120342 0.065
      vertex 0.00376065 0.00136876 -0.015
    endloop
  endfacet
  facet normal 0.94693 0.32144 0
    outer loop
      vertex 0.00376065 0.00136876 -0.015
      vertex 0.00381678 0.00120342 0.065
      vertex 0.00381678 0.00120342 -0.015
    endloop
  endfacet
  facet normal 0.96005 0.279829 0
    outer loop
      vertex 0.00381678 0.00120342 0.065
      vertex 0.00386564 0.00103579 0.065
      vertex 0.00381678 0.00120342 -0.015
    endloop
  endfacet
  facet normal 0.96005 0.279829 0
    outer loop
      vertex 0.00381678 0.00120342 -0.015
      vertex 0.00386564 0.00103579 0.065
      vertex 0.00386564 0.00103579 -0.015
    endloop
  endfacet
  facet normal 0.971342 0.237685 0
    outer loop
      vertex 0.00386564 0.00103579 0.065
      vertex 0.00390714 0.000866191 0.065
      vertex 0.00386564 0.00103579 -0.015
    endloop
  endfacet
  facet normal 0.971342 0.237685 0
    outer loop
      vertex 0.00386564 0.00103579 -0.015
      vertex 0.00390714 0.000866191 0.065
      vertex 0.00390714 0.000866191 -0.015
    endloop
  endfacet
  facet normal 0.980785 0.195091 0
    outer loop
      vertex 0.00390714 0.000866191 0.065
      vertex 0.0039412 0.00069494 0.065
      vertex 0.00390714 0.000866191 -0.015
    endloop
  endfacet
  facet normal 0.980785 0.195091 0
    outer loop
      vertex 0.00390714 0.000866191 -0.015
      vertex 0.0039412 0.00069494 0.065
      vertex 0.0039412 0.00069494 -0.015
    endloop
  endfacet
  facet normal 0.988361 0.152124 0
    outer loop
      vertex 0.0039412 0.00069494 0.065
      vertex 0.00396776 0.000522366 0.065
      vertex 0.0039412 0.00069494 -0.015
    endloop
  endfacet
  facet normal 0.988361 0.152124 0
    outer loop
      vertex 0.0039412 0.00069494 -0.015
      vertex 0.00396776 0.000522366 0.065
      vertex 0.00396776 0.000522366 -0.015
    endloop
  endfacet
  facet normal 0.994056 0.108866 0
    outer loop
      vertex 0.00396776 0.000522366 0.065
      vertex 0.00398677 0.000348797 0.065
      vertex 0.00396776 0.000522366 -0.015
    endloop
  endfacet
  facet normal 0.994056 0.108866 0
    outer loop
      vertex 0.00396776 0.000522366 -0.015
      vertex 0.00398677 0.000348797 0.065
      vertex 0.00398677 0.000348797 -0.015
    endloop
  endfacet
  facet normal 0.997859 0.0654036 0
    outer loop
      vertex 0.00398677 0.000348797 0.065
      vertex 0.00399819 0.000174565 0.065
      vertex 0.00398677 0.000348797 -0.015
    endloop
  endfacet
  facet normal 0.997859 0.0654036 0
    outer loop
      vertex 0.00398677 0.000348797 -0.015
      vertex 0.00399819 0.000174565 0.065
      vertex 0.00399819 0.000174565 -0.015
    endloop
  endfacet
  facet normal 0.999762 0.0218154 0
    outer loop
      vertex 0.00399819 0.000174565 0.065
      vertex 0.004002 1.71536e-18 0.065
      vertex 0.00399819 0.000174565 -0.015
    endloop
  endfacet
  facet normal 0.999762 0.0218154 -2.66479e-19
    outer loop
      vertex 0.00399819 0.000174565 -0.015
      vertex 0.004002 1.71536e-18 0.065
      vertex 0.004002 7.35155e-19 -0.015
    endloop
  endfacet
  facet normal 0.999762 -0.0218154 2.67295e-19
    outer loop
      vertex 0.004002 1.71536e-18 0.065
      vertex 0.00399819 -0.000174565 0.065
      vertex 0.004002 7.35155e-19 -0.015
    endloop
  endfacet
  facet normal 0.999762 -0.0218154 0
    outer loop
      vertex 0.004002 7.35155e-19 -0.015
      vertex 0.00399819 -0.000174565 0.065
      vertex 0.00399819 -0.000174565 -0.015
    endloop
  endfacet
  facet normal 0.997859 -0.0654036 0
    outer loop
      vertex 0.00399819 -0.000174565 0.065
      vertex 0.00398677 -0.000348797 0.065
      vertex 0.00399819 -0.000174565 -0.015
    endloop
  endfacet
  facet normal 0.997859 -0.0654036 0
    outer loop
      vertex 0.00399819 -0.000174565 -0.015
      vertex 0.00398677 -0.000348797 0.065
      vertex 0.00398677 -0.000348797 -0.015
    endloop
  endfacet
  facet normal 0.994056 -0.108866 0
    outer loop
      vertex 0.00398677 -0.000348797 0.065
      vertex 0.00396776 -0.000522366 0.065
      vertex 0.00398677 -0.000348797 -0.015
    endloop
  endfacet
  facet normal 0.994056 -0.108866 0
    outer loop
      vertex 0.00398677 -0.000348797 -0.015
      vertex 0.00396776 -0.000522366 0.065
      vertex 0.00396776 -0.000522366 -0.015
    endloop
  endfacet
  facet normal 0.988361 -0.152124 0
    outer loop
      vertex 0.00396776 -0.000522366 0.065
      vertex 0.0039412 -0.00069494 0.065
      vertex 0.00396776 -0.000522366 -0.015
    endloop
  endfacet
  facet normal 0.988361 -0.152124 0
    outer loop
      vertex 0.00396776 -0.000522366 -0.015
      vertex 0.0039412 -0.00069494 0.065
      vertex 0.0039412 -0.00069494 -0.015
    endloop
  endfacet
  facet normal 0.980785 -0.195091 0
    outer loop
      vertex 0.0039412 -0.00069494 0.065
      vertex 0.00390714 -0.000866191 0.065
      vertex 0.0039412 -0.00069494 -0.015
    endloop
  endfacet
  facet normal 0.980785 -0.195091 0
    outer loop
      vertex 0.0039412 -0.00069494 -0.015
      vertex 0.00390714 -0.000866191 0.065
      vertex 0.00390714 -0.000866191 -0.015
    endloop
  endfacet
  facet normal 0.971342 -0.237685 0
    outer loop
      vertex 0.00390714 -0.000866191 0.065
      vertex 0.00386564 -0.00103579 0.065
      vertex 0.00390714 -0.000866191 -0.015
    endloop
  endfacet
  facet normal 0.971342 -0.237685 0
    outer loop
      vertex 0.00390714 -0.000866191 -0.015
      vertex 0.00386564 -0.00103579 0.065
      vertex 0.00386564 -0.00103579 -0.015
    endloop
  endfacet
  facet normal 0.96005 -0.279829 0
    outer loop
      vertex 0.00386564 -0.00103579 0.065
      vertex 0.00381678 -0.00120342 0.065
      vertex 0.00386564 -0.00103579 -0.015
    endloop
  endfacet
  facet normal 0.96005 -0.279829 0
    outer loop
      vertex 0.00386564 -0.00103579 -0.015
      vertex 0.00381678 -0.00120342 0.065
      vertex 0.00381678 -0.00120342 -0.015
    endloop
  endfacet
  facet normal 0.94693 -0.32144 0
    outer loop
      vertex 0.00381678 -0.00120342 0.065
      vertex 0.00376065 -0.00136876 0.065
      vertex 0.00381678 -0.00120342 -0.015
    endloop
  endfacet
  facet normal 0.94693 -0.32144 0
    outer loop
      vertex 0.00381678 -0.00120342 -0.015
      vertex 0.00376065 -0.00136876 0.065
      vertex 0.00376065 -0.00136876 -0.015
    endloop
  endfacet
  facet normal 0.932008 -0.362437 0
    outer loop
      vertex 0.00376065 -0.00136876 0.065
      vertex 0.00369737 -0.0015315 0.065
      vertex 0.00376065 -0.00136876 -0.015
    endloop
  endfacet
  facet normal 0.932008 -0.362437 0
    outer loop
      vertex 0.00376065 -0.00136876 -0.015
      vertex 0.00369737 -0.0015315 0.065
      vertex 0.00369737 -0.0015315 -0.015
    endloop
  endfacet
  facet normal 0.915311 -0.402748 0
    outer loop
      vertex 0.00369737 -0.0015315 0.065
      vertex 0.00362704 -0.00169132 0.065
      vertex 0.00369737 -0.0015315 -0.015
    endloop
  endfacet
  facet normal 0.915311 -0.402748 0
    outer loop
      vertex 0.00369737 -0.0015315 -0.015
      vertex 0.00362704 -0.00169132 0.065
      vertex 0.00362704 -0.00169132 -0.015
    endloop
  endfacet
  facet normal 0.896873 -0.442289 0
    outer loop
      vertex 0.00362704 -0.00169132 0.065
      vertex 0.00354982 -0.00184792 0.065
      vertex 0.00362704 -0.00169132 -0.015
    endloop
  endfacet
  facet normal 0.896873 -0.442289 0
    outer loop
      vertex 0.00362704 -0.00169132 -0.015
      vertex 0.00354982 -0.00184792 0.065
      vertex 0.00354982 -0.00184792 -0.015
    endloop
  endfacet
  facet normal 0.876727 -0.480988 0
    outer loop
      vertex 0.00354982 -0.00184792 0.065
      vertex 0.00346583 -0.002001 0.065
      vertex 0.00354982 -0.00184792 -0.015
    endloop
  endfacet
  facet normal 0.876727 -0.480988 0
    outer loop
      vertex 0.00354982 -0.00184792 -0.015
      vertex 0.00346583 -0.002001 0.065
      vertex 0.00346583 -0.002001 -0.015
    endloop
  endfacet
  facet normal 0.854912 -0.518774 0
    outer loop
      vertex 0.00346583 -0.002001 0.065
      vertex 0.00337525 -0.00215027 0.065
      vertex 0.00346583 -0.002001 -0.015
    endloop
  endfacet
  facet normal 0.854912 -0.518774 0
    outer loop
      vertex 0.00346583 -0.002001 -0.015
      vertex 0.00337525 -0.00215027 0.065
      vertex 0.00337525 -0.00215027 -0.015
    endloop
  endfacet
  facet normal 0.83147 -0.55557 0
    outer loop
      vertex 0.00337525 -0.00215027 0.065
      vertex 0.00327825 -0.00229545 0.065
      vertex 0.00337525 -0.00215027 -0.015
    endloop
  endfacet
  facet normal 0.83147 -0.55557 0
    outer loop
      vertex 0.00337525 -0.00215027 -0.015
      vertex 0.00327825 -0.00229545 0.065
      vertex 0.00327825 -0.00229545 -0.015
    endloop
  endfacet
  facet normal 0.806445 -0.59131 0
    outer loop
      vertex 0.00327825 -0.00229545 0.065
      vertex 0.003175 -0.00243626 0.065
      vertex 0.00327825 -0.00229545 -0.015
    endloop
  endfacet
  facet normal 0.806445 -0.59131 0
    outer loop
      vertex 0.00327825 -0.00229545 -0.015
      vertex 0.003175 -0.00243626 0.065
      vertex 0.003175 -0.00243626 -0.015
    endloop
  endfacet
  facet normal 0.779885 -0.625923 0
    outer loop
      vertex 0.003175 -0.00243626 0.065
      vertex 0.00306571 -0.00257244 0.065
      vertex 0.003175 -0.00243626 -0.015
    endloop
  endfacet
  facet normal 0.779885 -0.625923 0
    outer loop
      vertex 0.003175 -0.00243626 -0.015
      vertex 0.00306571 -0.00257244 0.065
      vertex 0.00306571 -0.00257244 -0.015
    endloop
  endfacet
  facet normal 0.751839 -0.659346 0
    outer loop
      vertex 0.00306571 -0.00257244 0.065
      vertex 0.00295058 -0.00270371 0.065
      vertex 0.00306571 -0.00257244 -0.015
    endloop
  endfacet
  facet normal 0.751839 -0.659346 0
    outer loop
      vertex 0.00306571 -0.00257244 -0.015
      vertex 0.00295058 -0.00270371 0.065
      vertex 0.00295058 -0.00270371 -0.015
    endloop
  endfacet
  facet normal 0.722364 -0.691513 0
    outer loop
      vertex 0.00295058 -0.00270371 0.065
      vertex 0.00282984 -0.00282984 0.065
      vertex 0.00295058 -0.00270371 -0.015
    endloop
  endfacet
  facet normal 0.722364 -0.691513 0
    outer loop
      vertex 0.00295058 -0.00270371 -0.015
      vertex 0.00282984 -0.00282984 0.065
      vertex 0.00282984 -0.00282984 -0.015
    endloop
  endfacet
  facet normal 0.691513 -0.722364 0
    outer loop
      vertex 0.00282984 -0.00282984 0.065
      vertex 0.00270371 -0.00295058 0.065
      vertex 0.00282984 -0.00282984 -0.015
    endloop
  endfacet
  facet normal 0.691513 -0.722364 0
    outer loop
      vertex 0.00282984 -0.00282984 -0.015
      vertex 0.00270371 -0.00295058 0.065
      vertex 0.00270371 -0.00295058 -0.015
    endloop
  endfacet
  facet normal 0.659346 -0.751839 0
    outer loop
      vertex 0.00270371 -0.00295058 0.065
      vertex 0.00257244 -0.00306571 0.065
      vertex 0.00270371 -0.00295058 -0.015
    endloop
  endfacet
  facet normal 0.659346 -0.751839 0
    outer loop
      vertex 0.00270371 -0.00295058 -0.015
      vertex 0.00257244 -0.00306571 0.065
      vertex 0.00257244 -0.00306571 -0.015
    endloop
  endfacet
  facet normal 0.625923 -0.779885 0
    outer loop
      vertex 0.00257244 -0.00306571 0.065
      vertex 0.00243626 -0.003175 0.065
      vertex 0.00257244 -0.00306571 -0.015
    endloop
  endfacet
  facet normal 0.625923 -0.779885 0
    outer loop
      vertex 0.00257244 -0.00306571 -0.015
      vertex 0.00243626 -0.003175 0.065
      vertex 0.00243626 -0.003175 -0.015
    endloop
  endfacet
  facet normal 0.59131 -0.806445 0
    outer loop
      vertex 0.00243626 -0.003175 0.065
      vertex 0.00229545 -0.00327825 0.065
      vertex 0.00243626 -0.003175 -0.015
    endloop
  endfacet
  facet normal 0.59131 -0.806445 0
    outer loop
      vertex 0.00243626 -0.003175 -0.015
      vertex 0.00229545 -0.00327825 0.065
      vertex 0.00229545 -0.00327825 -0.015
    endloop
  endfacet
  facet normal 0.55557 -0.83147 0
    outer loop
      vertex 0.00229545 -0.00327825 0.065
      vertex 0.00215027 -0.00337525 0.065
      vertex 0.00229545 -0.00327825 -0.015
    endloop
  endfacet
  facet normal 0.55557 -0.83147 0
    outer loop
      vertex 0.00229545 -0.00327825 -0.015
      vertex 0.00215027 -0.00337525 0.065
      vertex 0.00215027 -0.00337525 -0.015
    endloop
  endfacet
  facet normal 0.518774 -0.854912 0
    outer loop
      vertex 0.00215027 -0.00337525 0.065
      vertex 0.002001 -0.00346583 0.065
      vertex 0.00215027 -0.00337525 -0.015
    endloop
  endfacet
  facet normal 0.518774 -0.854912 0
    outer loop
      vertex 0.00215027 -0.00337525 -0.015
      vertex 0.002001 -0.00346583 0.065
      vertex 0.002001 -0.00346583 -0.015
    endloop
  endfacet
  facet normal 0.480988 -0.876727 0
    outer loop
      vertex 0.002001 -0.00346583 0.065
      vertex 0.00184792 -0.00354982 0.065
      vertex 0.002001 -0.00346583 -0.015
    endloop
  endfacet
  facet normal 0.480988 -0.876727 0
    outer loop
      vertex 0.002001 -0.00346583 -0.015
      vertex 0.00184792 -0.00354982 0.065
      vertex 0.00184792 -0.00354982 -0.015
    endloop
  endfacet
  facet normal 0.442289 -0.896873 0
    outer loop
      vertex 0.00184792 -0.00354982 0.065
      vertex 0.00169132 -0.00362704 0.065
      vertex 0.00184792 -0.00354982 -0.015
    endloop
  endfacet
  facet normal 0.442289 -0.896873 0
    outer loop
      vertex 0.00184792 -0.00354982 -0.015
      vertex 0.00169132 -0.00362704 0.065
      vertex 0.00169132 -0.00362704 -0.015
    endloop
  endfacet
  facet normal 0.402748 -0.915311 0
    outer loop
      vertex 0.00169132 -0.00362704 0.065
      vertex 0.0015315 -0.00369737 0.065
      vertex 0.00169132 -0.00362704 -0.015
    endloop
  endfacet
  facet normal 0.402748 -0.915311 0
    outer loop
      vertex 0.00169132 -0.00362704 -0.015
      vertex 0.0015315 -0.00369737 0.065
      vertex 0.0015315 -0.00369737 -0.015
    endloop
  endfacet
  facet normal 0.362437 -0.932008 0
    outer loop
      vertex 0.0015315 -0.00369737 0.065
      vertex 0.00136876 -0.00376065 0.065
      vertex 0.0015315 -0.00369737 -0.015
    endloop
  endfacet
  facet normal 0.362437 -0.932008 0
    outer loop
      vertex 0.0015315 -0.00369737 -0.015
      vertex 0.00136876 -0.00376065 0.065
      vertex 0.00136876 -0.00376065 -0.015
    endloop
  endfacet
  facet normal 0.32144 -0.94693 0
    outer loop
      vertex 0.00136876 -0.00376065 0.065
      vertex 0.00120342 -0.00381678 0.065
      vertex 0.00136876 -0.00376065 -0.015
    endloop
  endfacet
  facet normal 0.32144 -0.94693 0
    outer loop
      vertex 0.00136876 -0.00376065 -0.015
      vertex 0.00120342 -0.00381678 0.065
      vertex 0.00120342 -0.00381678 -0.015
    endloop
  endfacet
  facet normal 0.279829 -0.96005 0
    outer loop
      vertex 0.00120342 -0.00381678 0.065
      vertex 0.00103579 -0.00386564 0.065
      vertex 0.00120342 -0.00381678 -0.015
    endloop
  endfacet
  facet normal 0.279829 -0.96005 0
    outer loop
      vertex 0.00120342 -0.00381678 -0.015
      vertex 0.00103579 -0.00386564 0.065
      vertex 0.00103579 -0.00386564 -0.015
    endloop
  endfacet
  facet normal 0.237685 -0.971342 0
    outer loop
      vertex 0.00103579 -0.00386564 0.065
      vertex 0.000866191 -0.00390714 0.065
      vertex 0.00103579 -0.00386564 -0.015
    endloop
  endfacet
  facet normal 0.237685 -0.971342 0
    outer loop
      vertex 0.00103579 -0.00386564 -0.015
      vertex 0.000866191 -0.00390714 0.065
      vertex 0.000866191 -0.00390714 -0.015
    endloop
  endfacet
  facet normal 0.195091 -0.980785 0
    outer loop
      vertex 0.000866191 -0.00390714 0.065
      vertex 0.00069494 -0.0039412 0.065
      vertex 0.000866191 -0.00390714 -0.015
    endloop
  endfacet
  facet normal 0.195091 -0.980785 0
    outer loop
      vertex 0.000866191 -0.00390714 -0.015
      vertex 0.00069494 -0.0039412 0.065
      vertex 0.00069494 -0.0039412 -0.015
    endloop
  endfacet
  facet normal 0.152124 -0.988361 0
    outer loop
      vertex 0.00069494 -0.0039412 0.065
      vertex 0.000522366 -0.00396776 0.065
      vertex 0.00069494 -0.0039412 -0.015
    endloop
  endfacet
  facet normal 0.152124 -0.988361 0
    outer loop
      vertex 0.00069494 -0.0039412 -0.015
      vertex 0.000522366 -0.00396776 0.065
      vertex 0.000522366 -0.00396776 -0.015
    endloop
  endfacet
  facet normal 0.108866 -0.994056 0
    outer loop
      vertex 0.000522366 -0.00396776 0.065
      vertex 0.000348797 -0.00398677 0.065
      vertex 0.000522366 -0.00396776 -0.015
    endloop
  endfacet
  facet normal 0.108866 -0.994056 0
    outer loop
      vertex 0.000522366 -0.00396776 -0.015
      vertex 0.000348797 -0.00398677 0.065
      vertex 0.000348797 -0.00398677 -0.015
    endloop
  endfacet
  facet normal 0.0654036 -0.997859 0
    outer loop
      vertex 0.000348797 -0.00398677 0.065
      vertex 0.000174565 -0.00399819 0.065
      vertex 0.000348797 -0.00398677 -0.015
    endloop
  endfacet
  facet normal 0.0654036 -0.997859 0
    outer loop
      vertex 0.000348797 -0.00398677 -0.015
      vertex 0.000174565 -0.00399819 0.065
      vertex 0.000174565 -0.00399819 -0.015
    endloop
  endfacet
  facet normal 0.0218154 -0.999762 0
    outer loop
      vertex 0.000174565 -0.00399819 0.065
      vertex 7.35155e-19 -0.004002 0.065
      vertex 0.000174565 -0.00399819 -0.015
    endloop
  endfacet
  facet normal 0.0218154 -0.999762 0
    outer loop
      vertex 0.000174565 -0.00399819 -0.015
      vertex 7.35155e-19 -0.004002 0.065
      vertex 7.35155e-19 -0.004002 -0.015
    endloop
  endfacet
  facet normal -0.0218154 -0.999762 0
    outer loop
      vertex 7.35155e-19 -0.004002 0.065
      vertex -0.000174565 -0.00399819 0.065
      vertex 7.35155e-19 -0.004002 -0.015
    endloop
  endfacet
  facet normal -0.0218154 -0.999762 0
    outer loop
      vertex 7.35155e-19 -0.004002 -0.015
      vertex -0.000174565 -0.00399819 0.065
      vertex -0.000174565 -0.00399819 -0.015
    endloop
  endfacet
  facet normal -0.0654036 -0.997859 0
    outer loop
      vertex -0.000174565 -0.00399819 0.065
      vertex -0.000348797 -0.00398677 0.065
      vertex -0.000174565 -0.00399819 -0.015
    endloop
  endfacet
  facet normal -0.0654036 -0.997859 0
    outer loop
      vertex -0.000174565 -0.00399819 -0.015
      vertex -0.000348797 -0.00398677 0.065
      vertex -0.000348797 -0.00398677 -0.015
    endloop
  endfacet
  facet normal -0.108866 -0.994056 0
    outer loop
      vertex -0.000348797 -0.00398677 0.065
      vertex -0.000522366 -0.00396776 0.065
      vertex -0.000348797 -0.00398677 -0.015
    endloop
  endfacet
  facet normal -0.108866 -0.994056 0
    outer loop
      vertex -0.000348797 -0.00398677 -0.015
      vertex -0.000522366 -0.00396776 0.065
      vertex -0.000522366 -0.00396776 -0.015
    endloop
  endfacet
  facet normal -0.152124 -0.988361 0
    outer loop
      vertex -0.000522366 -0.00396776 0.065
      vertex -0.00069494 -0.0039412 0.065
      vertex -0.000522366 -0.00396776 -0.015
    endloop
  endfacet
  facet normal -0.152124 -0.988361 0
    outer loop
      vertex -0.000522366 -0.00396776 -0.015
      vertex -0.00069494 -0.0039412 0.065
      vertex -0.00069494 -0.0039412 -0.015
    endloop
  endfacet
  facet normal -0.195091 -0.980785 0
    outer loop
      vertex -0.00069494 -0.0039412 0.065
      vertex -0.000866191 -0.00390714 0.065
      vertex -0.00069494 -0.0039412 -0.015
    endloop
  endfacet
  facet normal -0.195091 -0.980785 0
    outer loop
      vertex -0.00069494 -0.0039412 -0.015
      vertex -0.000866191 -0.00390714 0.065
      vertex -0.000866191 -0.00390714 -0.015
    endloop
  endfacet
  facet normal -0.237685 -0.971342 0
    outer loop
      vertex -0.000866191 -0.00390714 0.065
      vertex -0.00103579 -0.00386564 0.065
      vertex -0.000866191 -0.00390714 -0.015
    endloop
  endfacet
  facet normal -0.237685 -0.971342 0
    outer loop
      vertex -0.000866191 -0.00390714 -0.015
      vertex -0.00103579 -0.00386564 0.065
      vertex -0.00103579 -0.00386564 -0.015
    endloop
  endfacet
  facet normal -0.279829 -0.96005 0
    outer loop
      vertex -0.00103579 -0.00386564 0.065
      vertex -0.00120342 -0.00381678 0.065
      vertex -0.00103579 -0.00386564 -0.015
    endloop
  endfacet
  facet normal -0.279829 -0.96005 0
    outer loop
      vertex -0.00103579 -0.00386564 -0.015
      vertex -0.00120342 -0.00381678 0.065
      vertex -0.00120342 -0.00381678 -0.015
    endloop
  endfacet
  facet normal -0.32144 -0.94693 0
    outer loop
      vertex -0.00120342 -0.00381678 0.065
      vertex -0.00136876 -0.00376065 0.065
      vertex -0.00120342 -0.00381678 -0.015
    endloop
  endfacet
  facet normal -0.32144 -0.94693 0
    outer loop
      vertex -0.00120342 -0.00381678 -0.015
      vertex -0.00136876 -0.00376065 0.065
      vertex -0.00136876 -0.00376065 -0.015
    endloop
  endfacet
  facet normal -0.362437 -0.932008 0
    outer loop
      vertex -0.00136876 -0.00376065 0.065
      vertex -0.0015315 -0.00369737 0.065
      vertex -0.00136876 -0.00376065 -0.015
    endloop
  endfacet
  facet normal -0.362437 -0.932008 0
    outer loop
      vertex -0.00136876 -0.00376065 -0.015
      vertex -0.0015315 -0.00369737 0.065
      vertex -0.0015315 -0.00369737 -0.015
    endloop
  endfacet
  facet normal -0.402748 -0.915311 0
    outer loop
      vertex -0.0015315 -0.00369737 0.065
      vertex -0.00169132 -0.00362704 0.065
      vertex -0.0015315 -0.00369737 -0.015
    endloop
  endfacet
  facet normal -0.402748 -0.915311 0
    outer loop
      vertex -0.0015315 -0.00369737 -0.015
      vertex -0.00169132 -0.00362704 0.065
      vertex -0.00169132 -0.00362704 -0.015
    endloop
  endfacet
  facet normal -0.442289 -0.896873 0
    outer loop
      vertex -0.00169132 -0.00362704 0.065
      vertex -0.00184792 -0.00354982 0.065
      vertex -0.00169132 -0.00362704 -0.015
    endloop
  endfacet
  facet normal -0.442289 -0.896873 0
    outer loop
      vertex -0.00169132 -0.00362704 -0.015
      vertex -0.00184792 -0.00354982 0.065
      vertex -0.00184792 -0.00354982 -0.015
    endloop
  endfacet
  facet normal -0.480988 -0.876727 0
    outer loop
      vertex -0.00184792 -0.00354982 0.065
      vertex -0.002001 -0.00346583 0.065
      vertex -0.00184792 -0.00354982 -0.015
    endloop
  endfacet
  facet normal -0.480988 -0.876727 0
    outer loop
      vertex -0.00184792 -0.00354982 -0.015
      vertex -0.002001 -0.00346583 0.065
      vertex -0.002001 -0.00346583 -0.015
    endloop
  endfacet
  facet normal -0.518774 -0.854912 0
    outer loop
      vertex -0.002001 -0.00346583 0.065
      vertex -0.00215027 -0.00337525 0.065
      vertex -0.002001 -0.00346583 -0.015
    endloop
  endfacet
  facet normal -0.518774 -0.854912 0
    outer loop
      vertex -0.002001 -0.00346583 -0.015
      vertex -0.00215027 -0.00337525 0.065
      vertex -0.00215027 -0.00337525 -0.015
    endloop
  endfacet
  facet normal -0.55557 -0.83147 0
    outer loop
      vertex -0.00215027 -0.00337525 0.065
      vertex -0.00229545 -0.00327825 0.065
      vertex -0.00215027 -0.00337525 -0.015
    endloop
  endfacet
  facet normal -0.55557 -0.83147 0
    outer loop
      vertex -0.00215027 -0.00337525 -0.015
      vertex -0.00229545 -0.00327825 0.065
      vertex -0.00229545 -0.00327825 -0.015
    endloop
  endfacet
  facet normal -0.59131 -0.806445 0
    outer loop
      vertex -0.00229545 -0.00327825 0.065
      vertex -0.00243626 -0.003175 0.065
      vertex -0.00229545 -0.00327825 -0.015
    endloop
  endfacet
  facet normal -0.59131 -0.806445 0
    outer loop
      vertex -0.00229545 -0.00327825 -0.015
      vertex -0.00243626 -0.003175 0.065
      vertex -0.00243626 -0.003175 -0.015
    endloop
  endfacet
  facet normal -0.625923 -0.779885 0
    outer loop
      vertex -0.00243626 -0.003175 0.065
      vertex -0.00257244 -0.00306571 0.065
      vertex -0.00243626 -0.003175 -0.015
    endloop
  endfacet
  facet normal -0.625923 -0.779885 0
    outer loop
      vertex -0.00243626 -0.003175 -0.015
      vertex -0.00257244 -0.00306571 0.065
      vertex -0.00257244 -0.00306571 -0.015
    endloop
  endfacet
  facet normal -0.659346 -0.751839 0
    outer loop
      vertex -0.00257244 -0.00306571 0.065
      vertex -0.00270371 -0.00295058 0.065
      vertex -0.00257244 -0.00306571 -0.015
    endloop
  endfacet
  facet normal -0.659346 -0.751839 0
    outer loop
      vertex -0.00257244 -0.00306571 -0.015
      vertex -0.00270371 -0.00295058 0.065
      vertex -0.00270371 -0.00295058 -0.015
    endloop
  endfacet
  facet normal -0.691513 -0.722364 0
    outer loop
      vertex -0.00270371 -0.00295058 0.065
      vertex -0.00282984 -0.00282984 0.065
      vertex -0.00270371 -0.00295058 -0.015
    endloop
  endfacet
  facet normal -0.691513 -0.722364 0
    outer loop
      vertex -0.00270371 -0.00295058 -0.015
      vertex -0.00282984 -0.00282984 0.065
      vertex -0.00282984 -0.00282984 -0.015
    endloop
  endfacet
  facet normal -0.722364 -0.691513 0
    outer loop
      vertex -0.00282984 -0.00282984 0.065
      vertex -0.00295058 -0.00270371 0.065
      vertex -0.00282984 -0.00282984 -0.015
    endloop
  endfacet
  facet normal -0.722364 -0.691513 0
    outer loop
      vertex -0.00282984 -0.00282984 -0.015
      vertex -0.00295058 -0.00270371 0.065
      vertex -0.00295058 -0.00270371 -0.015
    endloop
  endfacet
  facet normal -0.751839 -0.659346 0
    outer loop
      vertex -0.00295058 -0.00270371 0.065
      vertex -0.00306571 -0.00257244 0.065
      vertex -0.00295058 -0.00270371 -0.015
    endloop
  endfacet
  facet normal -0.751839 -0.659346 0
    outer loop
      vertex -0.00295058 -0.00270371 -0.015
      vertex -0.00306571 -0.00257244 0.065
      vertex -0.00306571 -0.00257244 -0.015
    endloop
  endfacet
  facet normal -0.779885 -0.625923 0
    outer loop
      vertex -0.00306571 -0.00257244 0.065
      vertex -0.003175 -0.00243626 0.065
      vertex -0.00306571 -0.00257244 -0.015
    endloop
  endfacet
  facet normal -0.779885 -0.625923 0
    outer loop
      vertex -0.00306571 -0.00257244 -0.015
      vertex -0.003175 -0.00243626 0.065
      vertex -0.003175 -0.00243626 -0.015
    endloop
  endfacet
  facet normal -0.806445 -0.59131 0
    outer loop
      vertex -0.003175 -0.00243626 0.065
      vertex -0.00327825 -0.00229545 0.065
      vertex -0.003175 -0.00243626 -0.015
    endloop
  endfacet
  facet normal -0.806445 -0.59131 0
    outer loop
      vertex -0.003175 -0.00243626 -0.015
      vertex -0.00327825 -0.00229545 0.065
      vertex -0.00327825 -0.00229545 -0.015
    endloop
  endfacet
  facet normal -0.83147 -0.55557 0
    outer loop
      vertex -0.00327825 -0.00229545 0.065
      vertex -0.00337525 -0.00215027 0.065
      vertex -0.00327825 -0.00229545 -0.015
    endloop
  endfacet
  facet normal -0.83147 -0.55557 0
    outer loop
      vertex -0.00327825 -0.00229545 -0.015
      vertex -0.00337525 -0.00215027 0.065
      vertex -0.00337525 -0.00215027 -0.015
    endloop
  endfacet
  facet normal -0.854912 -0.518774 0
    outer loop
      vertex -0.00337525 -0.00215027 0.065
      vertex -0.00346583 -0.002001 0.065
      vertex -0.00337525 -0.00215027 -0.015
    endloop
  endfacet
  facet normal -0.854912 -0.518774 0
    outer loop
      vertex -0.00337525 -0.00215027 -0.015
      vertex -0.00346583 -0.002001 0.065
      vertex -0.00346583 -0.002001 -0.015
    endloop
  endfacet
  facet normal -0.876727 -0.480988 0
    outer loop
      vertex -0.00346583 -0.002001 0.065
      vertex -0.00354982 -0.00184792 0.065
      vertex -0.00346583 -0.002001 -0.015
    endloop
  endfacet
  facet normal -0.876727 -0.480988 0
    outer loop
      vertex -0.00346583 -0.002001 -0.015
      vertex -0.00354982 -0.00184792 0.065
      vertex -0.00354982 -0.00184792 -0.015
    endloop
  endfacet
  facet normal -0.896873 -0.442289 0
    outer loop
      vertex -0.00354982 -0.00184792 0.065
      vertex -0.00362704 -0.00169132 0.065
      vertex -0.00354982 -0.00184792 -0.015
    endloop
  endfacet
  facet normal -0.896873 -0.442289 0
    outer loop
      vertex -0.00354982 -0.00184792 -0.015
      vertex -0.00362704 -0.00169132 0.065
      vertex -0.00362704 -0.00169132 -0.015
    endloop
  endfacet
  facet normal -0.915311 -0.402748 0
    outer loop
      vertex -0.00362704 -0.00169132 0.065
      vertex -0.00369737 -0.0015315 0.065
      vertex -0.00362704 -0.00169132 -0.015
    endloop
  endfacet
  facet normal -0.915311 -0.402748 0
    outer loop
      vertex -0.00362704 -0.00169132 -0.015
      vertex -0.00369737 -0.0015315 0.065
      vertex -0.00369737 -0.0015315 -0.015
    endloop
  endfacet
  facet normal -0.932008 -0.362437 0
    outer loop
      vertex -0.00369737 -0.0015315 0.065
      vertex -0.00376065 -0.00136876 0.065
      vertex -0.00369737 -0.0015315 -0.015
    endloop
  endfacet
  facet normal -0.932008 -0.362437 0
    outer loop
      vertex -0.00369737 -0.0015315 -0.015
      vertex -0.00376065 -0.00136876 0.065
      vertex -0.00376065 -0.00136876 -0.015
    endloop
  endfacet
  facet normal -0.94693 -0.32144 0
    outer loop
      vertex -0.00376065 -0.00136876 0.065
      vertex -0.00381678 -0.00120342 0.065
      vertex -0.00376065 -0.00136876 -0.015
    endloop
  endfacet
  facet normal -0.94693 -0.32144 0
    outer loop
      vertex -0.00376065 -0.00136876 -0.015
      vertex -0.00381678 -0.00120342 0.065
      vertex -0.00381678 -0.00120342 -0.015
    endloop
  endfacet
  facet normal -0.96005 -0.279829 0
    outer loop
      vertex -0.00381678 -0.00120342 0.065
      vertex -0.00386564 -0.00103579 0.065
      vertex -0.00381678 -0.00120342 -0.015
    endloop
  endfacet
  facet normal -0.96005 -0.279829 0
    outer loop
      vertex -0.00381678 -0.00120342 -0.015
      vertex -0.00386564 -0.00103579 0.065
      vertex -0.00386564 -0.00103579 -0.015
    endloop
  endfacet
  facet normal -0.971342 -0.237685 0
    outer loop
      vertex -0.00386564 -0.00103579 0.065
      vertex -0.00390714 -0.000866191 0.065
      vertex -0.00386564 -0.00103579 -0.015
    endloop
  endfacet
  facet normal -0.971342 -0.237685 0
    outer loop
      vertex -0.00386564 -0.00103579 -0.015
      vertex -0.00390714 -0.000866191 0.065
      vertex -0.00390714 -0.000866191 -0.015
    endloop
  endfacet
  facet normal -0.980785 -0.195091 0
    outer loop
      vertex -0.00390714 -0.000866191 0.065
      vertex -0.0039412 -0.00069494 0.065
      vertex -0.00390714 -0.000866191 -0.015
    endloop
  endfacet
  facet normal -0.980785 -0.195091 0
    outer loop
      vertex -0.00390714 -0.000866191 -0.015
      vertex -0.0039412 -0.00069494 0.065
      vertex -0.0039412 -0.00069494 -0.015
    endloop
  endfacet
  facet normal -0.988361 -0.152124 0
    outer loop
      vertex -0.0039412 -0.00069494 0.065
      vertex -0.00396776 -0.000522366 0.065
      vertex -0.0039412 -0.00069494 -0.015
    endloop
  endfacet
  facet normal -0.988361 -0.152124 0
    outer loop
      vertex -0.0039412 -0.00069494 -0.015
      vertex -0.00396776 -0.000522366 0.065
      vertex -0.00396776 -0.000522366 -0.015
    endloop
  endfacet
  facet normal -0.994056 -0.108866 0
    outer loop
      vertex -0.00396776 -0.000522366 0.065
      vertex -0.00398677 -0.000348797 0.065
      vertex -0.00396776 -0.000522366 -0.015
    endloop
  endfacet
  facet normal -0.994056 -0.108866 0
    outer loop
      vertex -0.00396776 -0.000522366 -0.015
      vertex -0.00398677 -0.000348797 0.065
      vertex -0.00398677 -0.000348797 -0.015
    endloop
  endfacet
  facet normal -0.997859 -0.0654036 0
    outer loop
      vertex -0.00398677 -0.000348797 0.065
      vertex -0.00399819 -0.000174565 0.065
      vertex -0.00398677 -0.000348797 -0.015
    endloop
  endfacet
  facet normal -0.997859 -0.0654036 0
    outer loop
      vertex -0.00398677 -0.000348797 -0.015
      vertex -0.00399819 -0.000174565 0.065
      vertex -0.00399819 -0.000174565 -0.015
    endloop
  endfacet
  facet normal -0.999762 -0.0218154 0
    outer loop
      vertex -0.00399819 -0.000174565 0.065
      vertex -0.004002 2.45052e-19 0.065
      vertex -0.00399819 -0.000174565 -0.015
    endloop
  endfacet
  facet normal -0.999762 -0.0218154 0
    outer loop
      vertex -0.00399819 -0.000174565 -0.015
      vertex -0.004002 2.45052e-19 0.065
      vertex -0.004002 2.45052e-19 -0.015
    endloop
  endfacet
  facet normal -0.999762 0.0218154 0
    outer loop
      vertex -0.004002 2.45052e-19 0.065
      vertex -0.00399819 0.000174565 0.065
      vertex -0.004002 2.45052e-19 -0.015
    endloop
  endfacet
endsolid Mesh
