solid Mesh
  facet normal 0 0 1
    outer loop
      vertex 0.00398677 -0.000348797 0.065
      vertex 0.00399819 -0.000174565 0.065
      vertex 0 2.45052e-19 0.065
    endloop
  endfacet
  facet normal 0 0 1
    outer loop
      vertex 0.00399819 -0.000174565 0.065
      vertex 0.004002 2.45052e-19 0.065
      vertex 0 2.45052e-19 0.065
    endloop
  endfacet
  facet normal 0 0 1
    outer loop
      vertex 0 2.45052e-19 0.065
      vertex 0.004002 2.45052e-19 0.065
      vertex 0.00399819 0.000174565 0.065
    endloop
  endfacet
  facet normal 0 0 1
    outer loop
      vertex 0.00390714 -0.000866191 0.065
      vertex 0.0039412 -0.00069494 0.065
      vertex 0 2.45052e-19 0.065
    endloop
  endfacet
  facet normal 0 0 1
    outer loop
      vertex 0.0039412 -0.00069494 0.065
      vertex 0.00396776 -0.000522366 0.065
      vertex 0 2.45052e-19 0.065
    endloop
  endfacet
  facet normal 0 0 1
    outer loop
      vertex 0 2.45052e-19 0.065
      vertex 0.00396776 -0.000522366 0.065
      vertex 0.00398677 -0.000348797 0.065
    endloop
  endfacet
  facet normal 0 0 1
    outer loop
      vertex 0.00376065 -0.00136876 0.065
      vertex 0.00381678 -0.00120342 0.065
      vertex 0 2.45052e-19 0.065
    endloop
  endfacet
  facet normal 0 0 1
    outer loop
      vertex 0.00381678 -0.00120342 0.065
      vertex 0.00386564 -0.00103579 0.065
      vertex 0 2.45052e-19 0.065
    endloop
  endfacet
  facet normal 0 0 1
    outer loop
      vertex 0 2.45052e-19 0.065
      vertex 0.00386564 -0.00103579 0.065
      vertex 0.00390714 -0.000866191 0.065
    endloop
  endfacet
  facet normal 0 0 1
    outer loop
      vertex 0.00354982 -0.00184792 0.065
      vertex 0.00362704 -0.00169132 0.065
      vertex 0 2.45052e-19 0.065
    endloop
  endfacet
  facet normal 0 0 1
    outer loop
      vertex 0.00362704 -0.00169132 0.065
      vertex 0.00369737 -0.0015315 0.065
      vertex 0 2.45052e-19 0.065
    endloop
  endfacet
  facet normal 0 0 1
    outer loop
      vertex 0 2.45052e-19 0.065
      vertex 0.00369737 -0.0015315 0.065
      vertex 0.00376065 -0.00136876 0.065
    endloop
  endfacet
  facet normal 0 0 1
    outer loop
      vertex 0.00327825 -0.00229545 0.065
      vertex 0.00337525 -0.00215027 0.065
      vertex 0 2.45052e-19 0.065
    endloop
  endfacet
  facet normal 0 0 1
    outer loop
      vertex 0.00337525 -0.00215027 0.065
      vertex 0.00346583 -0.002001 0.065
      vertex 0 2.45052e-19 0.065
    endloop
  endfacet
  facet normal 0 0 1
    outer loop
      vertex 0 2.45052e-19 0.065
      vertex 0.00346583 -0.002001 0.065
      vertex 0.00354982 -0.00184792 0.065
    endloop
  endfacet
  facet normal 0 0 1
    outer loop
      vertex 0.00295058 -0.00270371 0.065
      vertex 0.00306571 -0.00257244 0.065
      vertex 0 2.45052e-19 0.065
    endloop
  endfacet
  facet normal 0 0 1
    outer loop
      vertex 0.00306571 -0.00257244 0.065
      vertex 0.003175 -0.00243626 0.065
      vertex 0 2.45052e-19 0.065
    endloop
  endfacet
  facet normal 0 0 1
    outer loop
      vertex 0 2.45052e-19 0.065
      vertex 0.003175 -0.00243626 0.065
      vertex 0.00327825 -0.00229545 0.065
    endloop
  endfacet
  facet normal 0 0 1
    outer loop
      vertex 0.00257244 -0.00306571 0.065
      vertex 0.00270371 -0.00295058 0.065
      vertex 0 2.45052e-19 0.065
    endloop
  endfacet
  facet normal 0 0 1
    outer loop
      vertex 0.00270371 -0.00295058 0.065
      vertex 0.00282984 -0.00282984 0.065
      vertex 0 2.45052e-19 0.065
    endloop
  endfacet
  facet normal 0 0 1
    outer loop
      vertex 0 2.45052e-19 0.065
      vertex 0.00282984 -0.00282984 0.065
      vertex 0.00295058 -0.00270371 0.065
    endloop
  endfacet
  facet normal 0 0 1
    outer loop
      vertex 0.00215027 -0.00337525 0.065
      vertex 0.00229545 -0.00327825 0.065
      vertex 0 2.45052e-19 0.065
    endloop
  endfacet
  facet normal 0 0 1
    outer loop
      vertex 0.00229545 -0.00327825 0.065
      vertex 0.00243626 -0.003175 0.065
      vertex 0 2.45052e-19 0.065
    endloop
  endfacet
  facet normal 0 0 1
    outer loop
      vertex 0 2.45052e-19 0.065
      vertex 0.00243626 -0.003175 0.065
      vertex 0.00257244 -0.00306571 0.065
    endloop
  endfacet
  facet normal 0 0 1
    outer loop
      vertex 0.00169132 -0.00362704 0.065
      vertex 0.00184792 -0.00354982 0.065
      vertex 0 2.45052e-19 0.065
    endloop
  endfacet
  facet normal 0 0 1
    outer loop
      vertex 0.00184792 -0.00354982 0.065
      vertex 0.002001 -0.00346583 0.065
      vertex 0 2.45052e-19 0.065
    endloop
  endfacet
  facet normal 0 0 1
    outer loop
      vertex 0 2.45052e-19 0.065
      vertex 0.002001 -0.00346583 0.065
      vertex 0.00215027 -0.00337525 0.065
    endloop
  endfacet
  facet normal 0 0 1
    outer loop
      vertex 0.00120342 -0.00381678 0.065
      vertex 0.00136876 -0.00376065 0.065
      vertex 0 2.45052e-19 0.065
    endloop
  endfacet
  facet normal 0 0 1
    outer loop
      vertex 0.00136876 -0.00376065 0.065
      vertex 0.0015315 -0.00369737 0.065
      vertex 0 2.45052e-19 0.065
    endloop
  endfacet
  facet normal 0 0 1
    outer loop
      vertex 0 2.45052e-19 0.065
      vertex 0.0015315 -0.00369737 0.065
      vertex 0.00169132 -0.00362704 0.065
    endloop
  endfacet
  facet normal 0 0 1
    outer loop
      vertex 0.00069494 -0.0039412 0.065
      vertex 0.000866191 -0.00390714 0.065
      vertex 0 2.45052e-19 0.065
    endloop
  endfacet
  facet normal 0 0 1
    outer loop
      vertex 0.000866191 -0.00390714 0.065
      vertex 0.00103579 -0.00386564 0.065
      vertex 0 2.45052e-19 0.065
    endloop
  endfacet
  facet normal 0 0 1
    outer loop
      vertex 0 2.45052e-19 0.065
      vertex 0.00103579 -0.00386564 0.065
      vertex 0.00120342 -0.00381678 0.065
    endloop
  endfacet
  facet normal 0 0 1
    outer loop
      vertex 0.000174565 -0.00399819 0.065
      vertex 0.000348797 -0.00398677 0.065
      vertex 0 2.45052e-19 0.065
    endloop
  endfacet
  facet normal 0 0 1
    outer loop
      vertex 0.000348797 -0.00398677 0.065
      vertex 0.000522366 -0.00396776 0.065
      vertex 0 2.45052e-19 0.065
    endloop
  endfacet
  facet normal 0 0 1
    outer loop
      vertex 0 2.45052e-19 0.065
      vertex 0.000522366 -0.00396776 0.065
      vertex 0.00069494 -0.0039412 0.065
    endloop
  endfacet
  facet normal 0 0 1
    outer loop
      vertex -0.000348797 -0.00398677 0.065
      vertex -0.000174565 -0.00399819 0.065
      vertex 0 2.45052e-19 0.065
    endloop
  endfacet
  facet normal 0 0 1
    outer loop
      vertex -0.000174565 -0.00399819 0.065
      vertex -1.16632e-18 -0.004002 0.065
      vertex 0 2.45052e-19 0.065
    endloop
  endfacet
  facet normal 0 0 1
    outer loop
      vertex 0 2.45052e-19 0.065
      vertex -1.16632e-18 -0.004002 0.065
      vertex 0.000174565 -0.00399819 0.065
    endloop
  endfacet
  facet normal 0 0 1
    outer loop
      vertex -0.000866191 -0.00390714 0.065
      vertex -0.00069494 -0.0039412 0.065
      vertex 0 2.45052e-19 0.065
    endloop
  endfacet
  facet normal 0 0 1
    outer loop
      vertex -0.00069494 -0.0039412 0.065
      vertex -0.000522366 -0.00396776 0.065
      vertex 0 2.45052e-19 0.065
    endloop
  endfacet
  facet normal 0 0 1
    outer loop
      vertex 0 2.45052e-19 0.065
      vertex -0.000522366 -0.00396776 0.065
      vertex -0.000348797 -0.00398677 0.065
    endloop
  endfacet
  facet normal 0 0 1
    outer loop
      vertex -0.00136876 -0.00376065 0.065
      vertex -0.00120342 -0.00381678 0.065
      vertex 0 2.45052e-19 0.065
    endloop
  endfacet
  facet normal 0 0 1
    outer loop
      vertex -0.00120342 -0.00381678 0.065
      vertex -0.00103579 -0.00386564 0.065
      vertex 0 2.45052e-19 0.065
    endloop
  endfacet
  facet normal 0 0 1
    outer loop
      vertex 0 2.45052e-19 0.065
      vertex -0.00103579 -0.00386564 0.065
      vertex -0.000866191 -0.00390714 0.065
    endloop
  endfacet
  facet normal 0 0 1
    outer loop
      vertex -0.00184792 -0.00354982 0.065
      vertex -0.00169132 -0.00362704 0.065
      vertex 0 2.45052e-19 0.065
    endloop
  endfacet
  facet normal 0 0 1
    outer loop
      vertex -0.00169132 -0.00362704 0.065
      vertex -0.0015315 -0.00369737 0.065
      vertex 0 2.45052e-19 0.065
    endloop
  endfacet
  facet normal 0 0 1
    outer loop
      vertex 0 2.45052e-19 0.065
      vertex -0.0015315 -0.00369737 0.065
      vertex -0.00136876 -0.00376065 0.065
    endloop
  endfacet
  facet normal 0 0 1
    outer loop
      vertex -0.00229545 -0.00327825 0.065
      vertex -0.00215027 -0.00337525 0.065
      vertex 0 2.45052e-19 0.065
    endloop
  endfacet
  facet normal 0 0 1
    outer loop
      vertex -0.00215027 -0.00337525 0.065
      vertex -0.002001 -0.00346583 0.065
      vertex 0 2.45052e-19 0.065
    endloop
  endfacet
  facet normal 0 0 1
    outer loop
      vertex 0 2.45052e-19 0.065
      vertex -0.002001 -0.00346583 0.065
      vertex -0.00184792 -0.00354982 0.065
    endloop
  endfacet
  facet normal 0 0 1
    outer loop
      vertex -0.00270371 -0.00295058 0.065
      vertex -0.00257244 -0.00306571 0.065
      vertex 0 2.45052e-19 0.065
    endloop
  endfacet
  facet normal 0 0 1
    outer loop
      vertex -0.00257244 -0.00306571 0.065
      vertex -0.00243626 -0.003175 0.065
      vertex 0 2.45052e-19 0.065
    endloop
  endfacet
  facet normal 0 0 1
    outer loop
      vertex 0 2.45052e-19 0.065
      vertex -0.00243626 -0.003175 0.065
      vertex -0.00229545 -0.00327825 0.065
    endloop
  endfacet
  facet normal 0 0 1
    outer loop
      vertex -0.00306571 -0.00257244 0.065
      vertex -0.00295058 -0.00270371 0.065
      vertex 0 2.45052e-19 0.065
    endloop
  endfacet
  facet normal 0 0 1
    outer loop
      vertex -0.00295058 -0.00270371 0.065
      vertex -0.00282984 -0.00282984 0.065
      vertex 0 2.45052e-19 0.065
    endloop
  endfacet
  facet normal 0 0 1
    outer loop
      vertex 0 2.45052e-19 0.065
      vertex -0.00282984 -0.00282984 0.065
      vertex -0.00270371 -0.00295058 0.065
    endloop
  endfacet
  facet normal 0 0 1
    outer loop
      vertex -0.00337525 -0.00215027 0.065
      vertex -0.00327825 -0.00229545 0.065
      vertex 0 2.45052e-19 0.065
    endloop
  endfacet
  facet normal 0 0 1
    outer loop
      vertex -0.00327825 -0.00229545 0.065
      vertex -0.003175 -0.00243626 0.065
      vertex 0 2.45052e-19 0.065
    endloop
  endfacet
  facet normal 0 0 1
    outer loop
      vertex 0 2.45052e-19 0.065
      vertex -0.003175 -0.00243626 0.065
      vertex -0.00306571 -0.00257244 0.065
    endloop
  endfacet
  facet normal 0 0 1
    outer loop
      vertex -0.00362704 -0.00169132 0.065
      vertex -0.00354982 -0.00184792 0.065
      vertex 0 2.45052e-19 0.065
    endloop
  endfacet
  facet normal 0 0 1
    outer loop
      vertex -0.00354982 -0.00184792 0.065
      vertex -0.00346583 -0.002001 0.065
      vertex 0 2.45052e-19 0.065
    endloop
  endfacet
  facet normal 0 0 1
    outer loop
      vertex 0 2.45052e-19 0.065
      vertex -0.00346583 -0.002001 0.065
      vertex -0.00337525 -0.00215027 0.065
    endloop
  endfacet
  facet normal 0 0 1
    outer loop
      vertex -0.00381678 -0.00120342 0.065
      vertex -0.00376065 -0.00136876 0.065
      vertex 0 2.45052e-19 0.065
    endloop
  endfacet
  facet normal 0 0 1
    outer loop
      vertex -0.00376065 -0.00136876 0.065
      vertex -0.00369737 -0.0015315 0.065
      vertex 0 2.45052e-19 0.065
    endloop
  endfacet
  facet normal 0 0 1
    outer loop
      vertex 0 2.45052e-19 0.065
      vertex -0.00369737 -0.0015315 0.065
      vertex -0.00362704 -0.00169132 0.065
    endloop
  endfacet
  facet normal 0 0 1
    outer loop
      vertex -0.0039412 -0.00069494 0.065
      vertex -0.00390714 -0.000866191 0.065
      vertex 0 2.45052e-19 0.065
    endloop
  endfacet
  facet normal 0 0 1
    outer loop
      vertex -0.00390714 -0.000866191 0.065
      vertex -0.00386564 -0.00103579 0.065
      vertex 0 2.45052e-19 0.065
    endloop
  endfacet
  facet normal 0 0 1
    outer loop
      vertex 0 2.45052e-19 0.065
      vertex -0.00386564 -0.00103579 0.065
      vertex -0.00381678 -0.00120342 0.065
    endloop
  endfacet
  facet normal 0 0 1
    outer loop
      vertex -0.00399819 -0.000174565 0.065
      vertex -0.00398677 -0.000348797 0.065
      vertex 0 2.45052e-19 0.065
    endloop
  endfacet
  facet normal 0 0 1
    outer loop
      vertex -0.00398677 -0.000348797 0.065
      vertex -0.00396776 -0.000522366 0.065
      vertex 0 2.45052e-19 0.065
    endloop
  endfacet
  facet normal 0 0 1
    outer loop
      vertex 0 2.45052e-19 0.065
      vertex -0.00396776 -0.000522366 0.065
      vertex -0.0039412 -0.00069494 0.065
    endloop
  endfacet
  facet normal 0 0 1
    outer loop
      vertex -0.00398677 0.000348797 0.065
      vertex -0.00399819 0.000174565 0.065
      vertex 0 2.45052e-19 0.065
    endloop
  endfacet
  facet normal 0 0 1
    outer loop
      vertex -0.00399819 0.000174565 0.065
      vertex -0.004002 1.41137e-18 0.065
      vertex 0 2.45052e-19 0.065
    endloop
  endfacet
  facet normal 0 0 1
    outer loop
      vertex 0 2.45052e-19 0.065
      vertex -0.004002 1.41137e-18 0.065
      vertex -0.00399819 -0.000174565 0.065
    endloop
  endfacet
  facet normal 0 0 1
    outer loop
      vertex -0.00390714 0.000866191 0.065
      vertex -0.0039412 0.00069494 0.065
      vertex 0 2.45052e-19 0.065
    endloop
  endfacet
  facet normal 0 0 1
    outer loop
      vertex -0.0039412 0.00069494 0.065
      vertex -0.00396776 0.000522366 0.065
      vertex 0 2.45052e-19 0.065
    endloop
  endfacet
  facet normal 0 0 1
    outer loop
      vertex 0 2.45052e-19 0.065
      vertex -0.00396776 0.000522366 0.065
      vertex -0.00398677 0.000348797 0.065
    endloop
  endfacet
  facet normal 0 0 1
    outer loop
      vertex -0.00376065 0.00136876 0.065
      vertex -0.00381678 0.00120342 0.065
      vertex 0 2.45052e-19 0.065
    endloop
  endfacet
  facet normal 0 0 1
    outer loop
      vertex -0.00381678 0.00120342 0.065
      vertex -0.00386564 0.00103579 0.065
      vertex 0 2.45052e-19 0.065
    endloop
  endfacet
  facet normal 0 0 1
    outer loop
      vertex 0 2.45052e-19 0.065
      vertex -0.00386564 0.00103579 0.065
      vertex -0.00390714 0.000866191 0.065
    endloop
  endfacet
  facet normal 0 0 1
    outer loop
      vertex -0.00354982 0.00184792 0.065
      vertex -0.00362704 0.00169132 0.065
      vertex 0 2.45052e-19 0.065
    endloop
  endfacet
  facet normal 0 0 1
    outer loop
      vertex -0.00362704 0.00169132 0.065
      vertex -0.00369737 0.0015315 0.065
      vertex 0 2.45052e-19 0.065
    endloop
  endfacet
  facet normal 0 0 1
    outer loop
      vertex 0 2.45052e-19 0.065
      vertex -0.00369737 0.0015315 0.065
      vertex -0.00376065 0.00136876 0.065
    endloop
  endfacet
  facet normal 0 0 1
    outer loop
      vertex -0.00327825 0.00229545 0.065
      vertex -0.00337525 0.00215027 0.065
      vertex 0 2.45052e-19 0.065
    endloop
  endfacet
  facet normal 0 0 1
    outer loop
      vertex -0.00337525 0.00215027 0.065
      vertex -0.00346583 0.002001 0.065
      vertex 0 2.45052e-19 0.065
    endloop
  endfacet
  facet normal 0 0 1
    outer loop
      vertex 0 2.45052e-19 0.065
      vertex -0.00346583 0.002001 0.065
      vertex -0.00354982 0.00184792 0.065
    endloop
  endfacet
  facet normal 0 0 1
    outer loop
      vertex -0.00295058 0.00270371 0.065
      vertex -0.00306571 0.00257244 0.065
      vertex 0 2.45052e-19 0.065
    endloop
  endfacet
  facet normal 0 0 1
    outer loop
      vertex -0.00306571 0.00257244 0.065
      vertex -0.003175 0.00243626 0.065
      vertex 0 2.45052e-19 0.065
    endloop
  endfacet
  facet normal 0 0 1
    outer loop
      vertex 0 2.45052e-19 0.065
      vertex -0.003175 0.00243626 0.065
      vertex -0.00327825 0.00229545 0.065
    endloop
  endfacet
  facet normal 0 0 1
    outer loop
      vertex -0.00257244 0.00306571 0.065
      vertex -0.00270371 0.00295058 0.065
      vertex 0 2.45052e-19 0.065
    endloop
  endfacet
  facet normal 0 0 1
    outer loop
      vertex -0.00270371 0.00295058 0.065
      vertex -0.00282984 0.00282984 0.065
      vertex 0 2.45052e-19 0.065
    endloop
  endfacet
  facet normal 0 0 1
    outer loop
      vertex 0 2.45052e-19 0.065
      vertex -0.00282984 0.00282984 0.065
      vertex -0.00295058 0.00270371 0.065
    endloop
  endfacet
  facet normal 0 0 1
    outer loop
      vertex -0.00215027 0.00337525 0.065
      vertex -0.00229545 0.00327825 0.065
      vertex 0 2.45052e-19 0.065
    endloop
  endfacet
  facet normal 0 0 1
    outer loop
      vertex -0.00229545 0.00327825 0.065
      vertex -0.00243626 0.003175 0.065
      vertex 0 2.45052e-19 0.065
    endloop
  endfacet
  facet normal 0 0 1
    outer loop
      vertex 0 2.45052e-19 0.065
      vertex -0.00243626 0.003175 0.065
      vertex -0.00257244 0.00306571 0.065
    endloop
  endfacet
  facet normal 0 0 1
    outer loop
      vertex -0.00169132 0.00362704 0.065
      vertex -0.00184792 0.00354982 0.065
      vertex 0 2.45052e-19 0.065
    endloop
  endfacet
  facet normal 0 0 1
    outer loop
      vertex -0.00184792 0.00354982 0.065
      vertex -0.002001 0.00346583 0.065
      vertex 0 2.45052e-19 0.065
    endloop
  endfacet
  facet normal 0 0 1
    outer loop
      vertex 0 2.45052e-19 0.065
      vertex -0.002001 0.00346583 0.065
      vertex -0.00215027 0.00337525 0.065
    endloop
  endfacet
  facet normal 0 0 1
    outer loop
      vertex -0.00120342 0.00381678 0.065
      vertex -0.00136876 0.00376065 0.065
      vertex 0 2.45052e-19 0.065
    endloop
  endfacet
  facet normal 0 0 1
    outer loop
      vertex -0.00136876 0.00376065 0.065
      vertex -0.0015315 0.00369737 0.065
      vertex 0 2.45052e-19 0.065
    endloop
  endfacet
  facet normal 0 0 1
    outer loop
      vertex 0 2.45052e-19 0.065
      vertex -0.0015315 0.00369737 0.065
      vertex -0.00169132 0.00362704 0.065
    endloop
  endfacet
  facet normal 0 0 1
    outer loop
      vertex -0.00069494 0.0039412 0.065
      vertex -0.000866191 0.00390714 0.065
      vertex 0 2.45052e-19 0.065
    endloop
  endfacet
  facet normal 0 0 1
    outer loop
      vertex -0.000866191 0.00390714 0.065
      vertex -0.00103579 0.00386564 0.065
      vertex 0 2.45052e-19 0.065
    endloop
  endfacet
  facet normal 0 0 1
    outer loop
      vertex 0 2.45052e-19 0.065
      vertex -0.00103579 0.00386564 0.065
      vertex -0.00120342 0.00381678 0.065
    endloop
  endfacet
  facet normal 0 0 1
    outer loop
      vertex -0.000174565 0.00399819 0.065
      vertex -0.000348797 0.00398677 0.065
      vertex 0 2.45052e-19 0.065
    endloop
  endfacet
  facet normal 0 0 1
    outer loop
      vertex -0.000348797 0.00398677 0.065
      vertex -0.000522366 0.00396776 0.065
      vertex 0 2.45052e-19 0.065
    endloop
  endfacet
  facet normal 0 0 1
    outer loop
      vertex 0 2.45052e-19 0.065
      vertex -0.000522366 0.00396776 0.065
      vertex -0.00069494 0.0039412 0.065
    endloop
  endfacet
  facet normal 0 0 1
    outer loop
      vertex 0.000348797 0.00398677 0.065
      vertex 0.000174565 0.00399819 0.065
      vertex 0 2.45052e-19 0.065
    endloop
  endfacet
  facet normal 0 0 1
    outer loop
      vertex 0.000174565 0.00399819 0.065
      vertex 1.11078e-19 0.004002 0.065
      vertex 0 2.45052e-19 0.065
    endloop
  endfacet
  facet normal 0 0 1
    outer loop
      vertex 0 2.45052e-19 0.065
      vertex 1.11078e-19 0.004002 0.065
      vertex -0.000174565 0.00399819 0.065
    endloop
  endfacet
  facet normal 0 0 1
    outer loop
      vertex 0.000866191 0.00390714 0.065
      vertex 0.00069494 0.0039412 0.065
      vertex 0 2.45052e-19 0.065
    endloop
  endfacet
  facet normal 0 0 1
    outer loop
      vertex 0.00069494 0.0039412 0.065
      vertex 0.000522366 0.00396776 0.065
      vertex 0 2.45052e-19 0.065
    endloop
  endfacet
  facet normal 0 0 1
    outer loop
      vertex 0 2.45052e-19 0.065
      vertex 0.000522366 0.00396776 0.065
      vertex 0.000348797 0.00398677 0.065
    endloop
  endfacet
  facet normal 0 0 1
    outer loop
      vertex 0.00136876 0.00376065 0.065
      vertex 0.00120342 0.00381678 0.065
      vertex 0 2.45052e-19 0.065
    endloop
  endfacet
  facet normal 0 0 1
    outer loop
      vertex 0.00120342 0.00381678 0.065
      vertex 0.00103579 0.00386564 0.065
      vertex 0 2.45052e-19 0.065
    endloop
  endfacet
  facet normal 0 0 1
    outer loop
      vertex 0 2.45052e-19 0.065
      vertex 0.00103579 0.00386564 0.065
      vertex 0.000866191 0.00390714 0.065
    endloop
  endfacet
  facet normal 0 0 1
    outer loop
      vertex 0.00184792 0.00354982 0.065
      vertex 0.00169132 0.00362704 0.065
      vertex 0 2.45052e-19 0.065
    endloop
  endfacet
  facet normal 0 0 1
    outer loop
      vertex 0.00169132 0.00362704 0.065
      vertex 0.0015315 0.00369737 0.065
      vertex 0 2.45052e-19 0.065
    endloop
  endfacet
  facet normal 0 0 1
    outer loop
      vertex 0 2.45052e-19 0.065
      vertex 0.0015315 0.00369737 0.065
      vertex 0.00136876 0.00376065 0.065
    endloop
  endfacet
  facet normal 0 0 1
    outer loop
      vertex 0.00229545 0.00327825 0.065
      vertex 0.00215027 0.00337525 0.065
      vertex 0 2.45052e-19 0.065
    endloop
  endfacet
  facet normal 0 0 1
    outer loop
      vertex 0.00215027 0.00337525 0.065
      vertex 0.002001 0.00346583 0.065
      vertex 0 2.45052e-19 0.065
    endloop
  endfacet
  facet normal 0 0 1
    outer loop
      vertex 0 2.45052e-19 0.065
      vertex 0.002001 0.00346583 0.065
      vertex 0.00184792 0.00354982 0.065
    endloop
  endfacet
  facet normal 0 0 1
    outer loop
      vertex 0.00270371 0.00295058 0.065
      vertex 0.00257244 0.00306571 0.065
      vertex 0 2.45052e-19 0.065
    endloop
  endfacet
  facet normal 0 0 1
    outer loop
      vertex 0.00257244 0.00306571 0.065
      vertex 0.00243626 0.003175 0.065
      vertex 0 2.45052e-19 0.065
    endloop
  endfacet
  facet normal 0 0 1
    outer loop
      vertex 0 2.45052e-19 0.065
      vertex 0.00243626 0.003175 0.065
      vertex 0.00229545 0.00327825 0.065
    endloop
  endfacet
  facet normal 0 0 1
    outer loop
      vertex 0.00306571 0.00257244 0.065
      vertex 0.00295058 0.00270371 0.065
      vertex 0 2.45052e-19 0.065
    endloop
  endfacet
  facet normal 0 0 1
    outer loop
      vertex 0.00295058 0.00270371 0.065
      vertex 0.00282984 0.00282984 0.065
      vertex 0 2.45052e-19 0.065
    endloop
  endfacet
  facet normal 0 0 1
    outer loop
      vertex 0 2.45052e-19 0.065
      vertex 0.00282984 0.00282984 0.065
      vertex 0.00270371 0.00295058 0.065
    endloop
  endfacet
  facet normal 0 0 1
    outer loop
      vertex 0.00337525 0.00215027 0.065
      vertex 0.00327825 0.00229545 0.065
      vertex 0 2.45052e-19 0.065
    endloop
  endfacet
  facet normal 0 0 1
    outer loop
      vertex 0.00327825 0.00229545 0.065
      vertex 0.003175 0.00243626 0.065
      vertex 0 2.45052e-19 0.065
    endloop
  endfacet
  facet normal 0 0 1
    outer loop
      vertex 0 2.45052e-19 0.065
      vertex 0.003175 0.00243626 0.065
      vertex 0.00306571 0.00257244 0.065
    endloop
  endfacet
  facet normal 0 0 1
    outer loop
      vertex 0.00362704 0.00169132 0.065
      vertex 0.00354982 0.00184792 0.065
      vertex 0 2.45052e-19 0.065
    endloop
  endfacet
  facet normal 0 0 1
    outer loop
      vertex 0.00354982 0.00184792 0.065
      vertex 0.00346583 0.002001 0.065
      vertex 0 2.45052e-19 0.065
    endloop
  endfacet
  facet normal 0 0 1
    outer loop
      vertex 0 2.45052e-19 0.065
      vertex 0.00346583 0.002001 0.065
      vertex 0.00337525 0.00215027 0.065
    endloop
  endfacet
  facet normal 0 0 1
    outer loop
      vertex 0.00381678 0.00120342 0.065
      vertex 0.00376065 0.00136876 0.065
      vertex 0 2.45052e-19 0.065
    endloop
  endfacet
  facet normal 0 0 1
    outer loop
      vertex 0.00376065 0.00136876 0.065
      vertex 0.00369737 0.0015315 0.065
      vertex 0 2.45052e-19 0.065
    endloop
  endfacet
  facet normal 0 0 1
    outer loop
      vertex 0 2.45052e-19 0.065
      vertex 0.00369737 0.0015315 0.065
      vertex 0.00362704 0.00169132 0.065
    endloop
  endfacet
  facet normal 0 0 1
    outer loop
      vertex 0.0039412 0.00069494 0.065
      vertex 0.00390714 0.000866191 0.065
      vertex 0 2.45052e-19 0.065
    endloop
  endfacet
  facet normal 0 0 1
    outer loop
      vertex 0.00390714 0.000866191 0.065
      vertex 0.00386564 0.00103579 0.065
      vertex 0 2.45052e-19 0.065
    endloop
  endfacet
  facet normal 0 0 1
    outer loop
      vertex 0 2.45052e-19 0.065
      vertex 0.00386564 0.00103579 0.065
      vertex 0.00381678 0.00120342 0.065
    endloop
  endfacet
  facet normal 0 0 1
    outer loop
      vertex 0.00399819 0.000174565 0.065
      vertex 0.00398677 0.000348797 0.065
      vertex 0 2.45052e-19 0.065
    endloop
  endfacet
  facet normal 0 0 1
    outer loop
      vertex 0.00398677 0.000348797 0.065
      vertex 0.00396776 0.000522366 0.065
      vertex 0 2.45052e-19 0.065
    endloop
  endfacet
  facet normal 0 0 1
    outer loop
      vertex 0 2.45052e-19 0.065
      vertex 0.00396776 0.000522366 0.065
      vertex 0.0039412 0.00069494 0.065
    endloop
  endfacet
endsolid Mesh
